<?xml version="1.0" encoding="UTF-8"?>
<!-- Generator: visioncortex VTracer -->
<svg id="svg" version="1.1" xmlns="http://www.w3.org/2000/svg" style="display: block;" viewBox="0 0 287 284"><path d="M0 0 C1.08042572 0.00465271 1.08042572 0.00465271 2.18267822 0.00939941 C12.76634818 0.06272946 23.12141617 0.37103195 33.5625 2.25 C34.6767334 2.44335938 34.6767334 2.44335938 35.81347656 2.640625 C63.95948027 7.62589503 89.0786116 19.05707592 109.5625 39.25 C110.67625 40.34441406 110.67625 40.34441406 111.8125 41.4609375 C127.22654618 57.65772821 132.02704944 77.62328544 131.765625 99.34765625 C131.22987492 120.28437735 118.82783296 138.97002982 103.99609375 153.08203125 C92.56197685 163.26812255 79.38598043 172.00123886 64.87548828 177.21557617 C61.39641661 178.77150046 60.90087216 181.11859537 59.4375 184.5625 C52.07139635 200.60183166 37.904624 213.71142598 21.6171875 220.47265625 C6.31169433 225.93331174 6.31169433 225.93331174 -0.5 222.875 C-3.42134645 220.42483846 -3.42134645 220.42483846 -3.76953125 216.65625 C-3.70514199 211.75830093 -1.81876901 208.71756676 0.875 204.75 C4.20247449 199.70837199 6.60259535 194.98383109 8.5625 189.25 C7.92038574 189.23541748 7.27827148 189.22083496 6.61669922 189.20581055 C-37.43976069 188.09872671 -80.1666301 178.92995652 -111.87109375 146.1640625 C-128.519256 127.26066974 -133.91103241 108.0127585 -132.4375 83.25 C-130.38419355 63.60267557 -117.15334353 44.72008738 -102.4375 32.25 C-85.07772687 18.510185 -64.920557 9.4852138 -43.4375 4.5 C-42.58462402 4.30124268 -41.73174805 4.10248535 -40.85302734 3.89770508 C-27.28045795 0.92783035 -13.8541424 -0.10717469 0 0 Z M-40.4375 19.25 C-41.31325684 19.46430664 -42.18901367 19.67861328 -43.09130859 19.89941406 C-54.96670193 22.91824671 -65.78631071 27.20440197 -76.4375 33.25 C-77.41976562 33.80429688 -78.40203125 34.35859375 -79.4140625 34.9296875 C-98.02231989 46.13754281 -112.05581674 61.74687084 -117.4375 83.25 C-119.89001444 99.80908247 -116.26591992 115.40139446 -106.5 129.0625 C-105.15848528 130.80150057 -103.8055173 132.53177027 -102.4375 134.25 C-101.97859375 134.87390625 -101.5196875 135.4978125 -101.046875 136.140625 C-83.67861563 158.53103166 -50.47767658 168.97668647 -23.5625 172.5 C-17.24789341 173.24648564 -10.96910379 173.2839112 -4.62109375 173.2265625 C-3.83561157 173.22047974 -3.05012939 173.21439697 -2.24084473 173.20812988 C1.76326984 173.17213373 5.76421837 173.10714035 9.76708984 173.00097656 C11.26008424 172.97678325 12.75308539 172.95300262 14.24609375 172.9296875 C14.93909073 172.90266754 15.63208771 172.87564758 16.34608459 172.84780884 C19.57436848 172.81438917 21.13263523 172.83323031 23.50195312 175.13037109 C25.88198969 179.88715688 24.44832291 185.39446756 22.92919922 190.29150391 C21.07128019 195.68762106 19.11638326 201.14223348 16.5625 206.25 C30.0483926 201.25973288 40.03108845 191.94626429 46.5625 179.25 C47.16222327 177.15613859 47.7254476 175.05144617 48.25 172.9375 C49.33272515 169.4175107 49.97209302 167.70483932 52.91015625 165.44140625 C56.07374949 163.87025429 59.28094198 162.55684709 62.5625 161.25 C65.2763679 160.01066018 67.95334712 158.70260208 70.625 157.375 C71.30804199 157.03621826 71.99108398 156.69743652 72.69482422 156.34838867 C78.8052328 153.25067974 84.24816103 149.58234156 89.5625 145.25 C90.41328125 144.56292969 91.2640625 143.87585938 92.140625 143.16796875 C105.95863234 131.4057079 115.86895768 115.54025701 117.5625 97.25 C118.73291659 80.57156354 111.43950308 63.95532527 100.671875 51.4765625 C77.25899112 26.76296285 44.41689617 16.46014477 11.05712891 15.10791016 C-6.45373011 14.65996324 -23.32773328 15.05789978 -40.4375 19.25 Z " transform="translate(147.4375,39.75)" style="fill: #4a90e2;"/></svg>