<?xml version="1.0" encoding="UTF-8"?>
<!-- Generator: visioncortex VTracer -->
<svg id="svg" version="1.1" xmlns="http://www.w3.org/2000/svg" style="display: block;" viewBox="0 0 300 287"><path d="M0 0 C4.66401198 4.3236403 5.98826712 10.25043181 7.875 16.125 C13.05688358 32.85306044 13.05688358 32.85306044 25 45 C34.19565693 49.10828932 43.65441636 46.17516205 52.60107422 42.79150391 C62.0752514 38.95962685 70.91323401 33.54152129 79.29296875 27.72265625 C82.51840358 25.67010682 84.24476028 25.4158516 88 26 C89.875 27.0625 89.875 27.0625 91 29 C91.70415358 35.61904366 89.50832276 40.83075084 87.125 46.9375 C82.67163569 58.54299886 78.52065028 69.90905103 81.9375 82.4375 C89.9615462 92.40676952 102.99531412 95.21568471 115.07421875 96.78588867 C119.79821914 97.47663131 122.54877062 98.69764718 126 102 C125.75484619 105.59558915 125.60727545 107.44022095 122.90234375 109.93359375 C119.61911747 112.27118016 116.23667398 114.29816316 112.75 116.3125 C98.28407152 124.61344364 98.28407152 124.61344364 89.2734375 138.12109375 C87.92840633 145.51876519 90.59257584 152.24707311 94.55859375 158.4296875 C97.62085234 162.44684393 100.99687872 166.03082174 104.6328125 169.52734375 C105.26912598 170.14311279 105.90543945 170.75888184 106.56103516 171.39331055 C107.83450536 172.61274405 109.12299234 173.81672257 110.42724609 175.00317383 C114.85378201 179.20349675 114.85378201 179.20349675 115.59375 183.234375 C115 186 115 186 113.8203125 187.85546875 C107.94299751 191.55086208 98.0107275 188.82983182 91.375 188 C78.75298631 186.42710291 66.67009201 185.92952267 55.65234375 193.5 C50.2404396 198.41293426 48.84420684 206.02958944 48 213 C47.84322012 219.38451557 48.00408258 225.76557277 48.19189453 232.1484375 C48.25226207 234.34638647 48.28778277 236.54367558 48.3203125 238.7421875 C48.35398926 240.0401123 48.38766602 241.33803711 48.42236328 242.67529297 C48 246 48 246 46.19091797 248.44189453 C44 250 44 250 40.625 250.1875 C35.73356458 248.58513323 34.01469914 246.01180893 31 242 C20.36381669 229.20965298 9.26829195 216.6337251 -8 214 C-17.29606184 213.38899124 -25.54874212 217.45571808 -32.703125 223.15234375 C-35.18969725 225.383394 -37.59532457 227.68135214 -40 230 C-41.30654957 231.11120138 -42.61876709 232.215785 -43.9375 233.3125 C-46.39674607 235.42256306 -48.59905208 237.63292223 -50.73046875 240.06640625 C-51.20943604 240.61063232 -51.68840332 241.1548584 -52.18188477 241.71557617 C-53.12425575 242.79919918 -54.05385549 243.89409984 -54.96850586 245.0012207 C-57.2537264 247.63541373 -58.78397154 248.93468284 -62.15234375 249.953125 C-65 250 -65 250 -67.9375 248.375 C-70.67046729 243.90287171 -70.00771378 241.36212803 -69.4140625 236.26953125 C-68.81590117 230.81499733 -68.74947298 225.35771164 -68.6875 219.875 C-68.65825439 218.87428467 -68.62900879 217.87356934 -68.59887695 216.8425293 C-68.52918001 208.43266153 -70.43333518 201.30833024 -74.75 194.0625 C-81.38511856 187.98030798 -88.83853264 186.78610403 -97.5625 186.75 C-98.39225342 186.74605225 -99.22200684 186.74210449 -100.0769043 186.73803711 C-107.08360541 186.8019801 -113.8072942 187.69091435 -120.67993164 189.02050781 C-125.06840415 189.8429588 -128.59764451 190.21880644 -133 189 C-135 187 -135 187 -135.66015625 183.92578125 C-134.65010078 177.91923835 -130.81688461 175.18458447 -126.4375 171.1875 C-117.80990795 163.1716953 -107.96909794 153.88339778 -106.625 141.5625 C-107.49008823 133.3441618 -110.79653327 127.47182863 -117 122 C-120.41966336 119.52763252 -124.00752214 117.32433406 -127.6015625 115.1171875 C-131.92691564 112.45967136 -136.39479274 109.60520726 -140 106 C-140.45920651 101.63753819 -140.45920651 101.63753819 -138.84765625 99.40014648 C-136.33321391 97.49471218 -134.31016186 97.35023458 -131.1875 96.97265625 C-129.44919922 96.74352539 -129.44919922 96.74352539 -127.67578125 96.50976562 C-125.25652286 96.21539253 -122.83725235 95.92111901 -120.41796875 95.62695312 C-111.20977157 94.41374523 -100.76391083 92.97528305 -94 86 C-89.81494421 80.0771692 -90.00292421 73.99677557 -91 67 C-93.32029551 56.4174537 -97.14348933 46.10217324 -101.1171875 36.04296875 C-102.13334642 32.54036787 -102.25832829 29.62973137 -102 26 C-100.4375 24 -100.4375 24 -98 23 C-91.62807202 23.24753104 -87.61761473 25.69290537 -82.4375 29.0625 C-80.84064612 30.06638161 -79.24298087 31.06897369 -77.64453125 32.0703125 C-76.85900879 32.56692383 -76.07348633 33.06353516 -75.26416016 33.57519531 C-58.38862462 44.57012182 -58.38862462 44.57012182 -39 47 C-30.88280671 44.48790923 -26.0051903 38.73033197 -21.99609375 31.484375 C-18.02107299 23.94287466 -14.73937981 16.20883717 -11.98999023 8.140625 C-9.58396953 1.23754248 -7.61170179 -1.06830902 0 0 Z M-4 28 C-4.4846875 28.89460938 -4.969375 29.78921875 -5.46875 30.7109375 C-12.01243714 42.59775628 -19.08273432 54.80571766 -32.375 59.875 C-49.21787596 64.66675517 -65.34227845 55.34531956 -80 48 C-78.72458568 55.47036859 -78.72458568 55.47036859 -76.875 62.8125 C-74.44870896 72.3415624 -75.01679 82.46160437 -80 91 C-86.76499776 101.51495473 -98.28184582 105.37033548 -110 108 C-109.63648437 108.42410156 -109.27296875 108.84820312 -108.8984375 109.28515625 C-107.83391163 110.5271031 -106.77299942 111.77215244 -105.71484375 113.01953125 C-104.65037877 114.24887919 -103.56282269 115.45909096 -102.44140625 116.63671875 C-96.05306073 123.48967121 -92.61467971 131.85320286 -91.6875 141.125 C-92.49111878 151.08987284 -97.55164174 158.88434802 -103 167 C-104.0097924 168.66075196 -105.01282585 170.32570463 -106 172 C-104.75605469 172.02578125 -103.51210937 172.0515625 -102.23046875 172.078125 C-88.05625206 172.50423507 -75.37798556 174.35657332 -65.02734375 185.03515625 C-57.5029929 194.09313276 -55.06399615 203.81989029 -54.4375 215.3125 C-54.39431641 216.05306641 -54.35113281 216.79363281 -54.30664062 217.55664062 C-54.20129568 219.37091464 -54.10021684 221.1854355 -54 223 C-53.030625 222.175 -52.06125 221.35 -51.0625 220.5 C-50.41539063 219.95214844 -49.76828125 219.40429688 -49.1015625 218.83984375 C-47.70809339 217.61991075 -46.34732723 216.36151577 -45.0234375 215.06640625 C-35.72218638 206.13093467 -23.96256531 200.19158779 -10.953125 199.94140625 C6.01619186 200.57065125 18.06959245 209.06659264 30.06640625 220.27734375 C31.69283362 222.11086767 31.69283362 222.11086767 33 222 C33.03963867 221.44650879 33.07927734 220.89301758 33.12011719 220.32275391 C34.30943045 204.53642731 35.68949808 193.14090512 48 182 C50.87119358 179.934322 53.75487049 178.39483637 57 177 C57.67289063 176.69449219 58.34578125 176.38898438 59.0390625 176.07421875 C68.1060462 172.49157163 78.39511143 172.93827192 88 173 C87.45472656 172.34257812 87.45472656 172.34257812 86.8984375 171.671875 C79.11633317 161.85445108 74.51134081 152.08587157 74.58203125 139.53125 C75.63974592 130.59504377 81.04184163 122.42069981 87.76171875 116.61328125 C89.20998047 115.47439453 89.20998047 115.47439453 90.6875 114.3125 C94.38986167 111.60844392 94.38986167 111.60844392 97 108 C96.16597656 107.72027344 95.33195313 107.44054687 94.47265625 107.15234375 C82.88239363 103.02339567 73.43208035 97.2670771 67.96875 85.84375 C63.50525331 74.10640686 67.14665702 62.69361094 70 51 C68.92363281 51.47050781 67.84726563 51.94101563 66.73828125 52.42578125 C51.21268973 59.09491113 36.83445055 64.06483801 20.1796875 58.44140625 C8.81138933 53.28796396 2.37977277 42.54286626 -1.9375 31.25 C-2.288125 30.1775 -2.63875 29.105 -3 28 C-3.33 28 -3.66 28 -4 28 Z " transform="translate(148,15)" style="fill: #ff6b6b;"/></svg>