<?xml version="1.0" encoding="UTF-8"?>
<!-- Generator: visioncortex VTracer -->
<svg id="svg" version="1.1" xmlns="http://www.w3.org/2000/svg" style="display: block;" viewBox="0 0 355 276"><path d="M0 0 C1.49040486 -0.00445668 1.49040486 -0.00445668 3.01091892 -0.0090034 C6.34402383 -0.01768264 9.6770928 -0.019198 13.01020813 -0.02069092 C15.39863156 -0.02531965 17.78705425 -0.03034438 20.17547607 -0.03573608 C26.66737863 -0.04885702 33.1592743 -0.05534138 39.65118766 -0.05974674 C43.70754168 -0.06251238 47.76389333 -0.06675033 51.82024574 -0.07125092 C63.05893523 -0.08344151 74.29762282 -0.09374105 85.53631878 -0.09712601 C86.61467766 -0.09745536 86.61467766 -0.09745536 87.71482157 -0.09779136 C88.43541378 -0.09800964 89.156006 -0.09822791 89.89843434 -0.09845281 C91.35854383 -0.09889627 92.81865333 -0.09934283 94.27876282 -0.09979248 C95.36515191 -0.10012463 95.36515191 -0.10012463 96.47348825 -0.10046348 C108.20318897 -0.10440961 119.93282751 -0.12185892 131.66250422 -0.145152 C143.71542554 -0.16889307 155.76831568 -0.18132912 167.82126075 -0.18249393 C174.58439352 -0.18340917 181.34744526 -0.18912337 188.11055565 -0.20731354 C194.47417471 -0.22380044 200.83764014 -0.22594658 207.20127296 -0.21717453 C209.53367652 -0.21640449 211.86608836 -0.2207425 214.19847107 -0.23063278 C217.38941343 -0.24336746 220.57981292 -0.23746684 223.77075195 -0.22705078 C224.68760432 -0.23510719 225.6044567 -0.24316359 226.54909247 -0.25146413 C237.91497467 -0.1650526 247.12955383 3.41235602 255.40205383 11.21466064 C262.60376183 18.84234767 266.2940779 26.83066176 266.36778259 37.31794739 C266.37901657 38.5865007 266.39025055 39.85505402 266.40182495 41.16204834 C266.40932395 42.56573434 266.41672103 43.96942089 266.42402649 45.37310791 C266.43524628 46.85337123 266.4468787 48.33363147 266.45889282 49.81388855 C266.49021054 53.83490059 266.51534457 57.85592942 266.53908968 61.87699246 C266.55953277 65.23882051 266.58306769 68.60062394 266.60662687 71.96243137 C266.66224676 79.90138245 266.71295976 87.84035434 266.76045227 95.77935791 C266.80940505 103.95105632 266.86572493 112.12267945 266.9258734 120.29430252 C266.97738076 127.32122479 267.02467697 134.34816659 267.06856096 141.37514061 C267.09475355 145.56674445 267.1224035 149.75832465 267.15393448 153.94989204 C267.18342086 157.8987129 267.20759254 161.8475328 267.2278347 165.79641151 C267.23607036 167.23827019 267.24609146 168.68012006 267.2581234 170.12195206 C267.39041538 186.27065644 266.99291807 200.24137747 256.14033508 213.17559814 C248.25909369 221.16806673 237.57079873 225.53845969 226.40029961 225.68007761 C225.02487973 225.66771646 225.02487973 225.66771646 223.62167358 225.65510559 C222.61618782 225.66205112 221.61070206 225.66899665 220.57474703 225.67615265 C217.23708419 225.69431171 213.9001411 225.68418912 210.56245422 225.67388916 C208.15668205 225.6809532 205.75091432 225.68970025 203.34515381 225.69999695 C197.50784615 225.72011839 191.67076139 225.72153232 185.83342893 225.7133714 C181.08549153 225.70705133 176.33761083 225.70822675 171.589674 225.71464348 C170.91189019 225.71554513 170.23410639 225.71644679 169.53578369 225.71737577 C168.15852732 225.71922712 166.78127097 225.72108968 165.40401464 225.72296333 C152.51219197 225.73951185 139.620479 225.73084776 126.72866296 225.71397775 C114.95536182 225.69928344 103.18231595 225.7139105 91.40904767 225.74274791 C79.29488076 225.77219741 67.18083142 225.78309805 55.0666303 225.77356571 C53.69435753 225.77254325 52.32208474 225.77154863 50.94981194 225.7705822 C49.93725536 225.76986761 49.93725536 225.76986761 48.9042431 225.76913859 C44.16730799 225.76698178 39.43048515 225.7767393 34.69357491 225.79135323 C28.30676883 225.80974889 21.92043603 225.80370333 15.53365517 225.77915382 C13.19564295 225.7741585 10.85759442 225.77760223 8.51961136 225.79030228 C-7.27903018 225.86930407 -19.53400133 225.3770454 -31.53153992 213.88262939 C-38.04118601 206.00371292 -41.90722989 196.80015711 -41.94433594 186.58329773 C-41.94801263 185.92610577 -41.95168931 185.26891381 -41.95547742 184.59180695 C-41.96648427 182.39113238 -41.97035303 180.19050507 -41.97416687 177.98980713 C-41.98043394 176.41102449 -41.98708096 174.83224331 -41.99407959 173.25346375 C-42.01509884 168.06866478 -42.0254821 162.8838656 -42.03544617 157.69903564 C-42.03949495 155.91128079 -42.04361191 154.1235261 -42.04779625 152.33577156 C-42.06684566 143.933215 -42.08107548 135.53066719 -42.08940822 127.12809318 C-42.09917074 117.44468319 -42.12546553 107.76150238 -42.16590911 98.0781731 C-42.19612899 90.58413773 -42.21088277 83.09016782 -42.21418923 75.59607273 C-42.21653361 71.12492863 -42.22541363 66.65402943 -42.25065041 62.18295097 C-42.27403825 57.97134422 -42.27812167 53.76014173 -42.26788902 49.54848671 C-42.26739609 48.00987269 -42.27364426 46.47123805 -42.28744507 44.93268585 C-42.40581387 30.94423597 -39.8279328 20.42588529 -29.94950867 10.23419189 C-21.02288011 1.85771341 -11.87215338 -0.01108507 0 0 Z M-22.79716492 23.14044189 C-26.98267209 29.61259995 -27.91682707 35.87796366 -27.93760681 43.52722168 C-27.94331696 44.79155533 -27.9490271 46.05588898 -27.95491028 47.35853577 C-27.95615541 48.74710073 -27.95728055 50.13566581 -27.95829773 51.52423096 C-27.96293056 52.99655785 -27.96795585 54.46888356 -27.9733429 55.94120789 C-27.98642383 59.93106577 -27.99290338 63.92090685 -27.99735355 67.91078281 C-28.00029116 70.4071252 -28.00439725 72.90346306 -28.00885773 75.39980316 C-28.02252113 83.22089721 -28.03219352 91.04198084 -28.03605962 98.86308599 C-28.04053808 107.87179261 -28.058081 116.88034735 -28.08706021 125.88900781 C-28.10871962 132.8658759 -28.11876616 139.84270139 -28.12010074 146.81960273 C-28.12114569 150.9804442 -28.12698725 155.14114266 -28.14492035 159.30194855 C-28.16147499 163.21887708 -28.16352097 167.13555621 -28.15478134 171.0525074 C-28.15401491 172.48349491 -28.15830122 173.91449625 -28.16823959 175.34544945 C-28.23951465 186.25465449 -27.55858966 195.72898605 -20.47685242 204.44903564 C-16.45317585 208.50078438 -11.50813609 210.90492482 -5.78581464 211.26809239 C-5.06976674 211.26933889 -4.35371884 211.27058539 -3.61597252 211.27186966 C-2.78512717 211.2757108 -1.95428181 211.27955195 -1.09825933 211.28350949 C-0.1906862 211.28264301 0.71688693 211.28177653 1.65196228 211.28088379 C2.62020978 211.28385491 3.58845729 211.28682603 4.58604562 211.28988719 C7.83933961 211.29857757 11.09259681 211.30008274 14.34590149 211.30157471 C16.67506489 211.3062027 19.00422753 211.31122733 21.33338928 211.31661987 C27.66833228 211.32974906 34.00326468 211.33619003 40.33821917 211.34063053 C44.29623972 211.34356085 48.25425737 211.34766562 52.21227646 211.3521347 C63.1772759 211.36424466 74.14227282 211.37462594 85.10727882 211.3780098 C86.15973188 211.37833915 86.15973188 211.37833915 87.23344662 211.37867515 C87.93673725 211.37889343 88.64002788 211.3791117 89.36463034 211.3793366 C90.7897025 211.37978006 92.21477465 211.38022662 93.6398468 211.38067627 C94.34672801 211.3808977 95.05360921 211.38111913 95.78191106 211.38134727 C107.22714893 211.38529239 118.67232301 211.40273765 130.11753626 211.42603579 C141.87662276 211.44977896 153.6356773 211.46221303 165.39478815 211.46337771 C171.99361814 211.46442546 178.59235821 211.4703269 185.19116592 211.48819733 C191.4012878 211.50468751 197.61125226 211.50682878 203.82138824 211.49805832 C206.09735155 211.49728842 208.37332335 211.50162443 210.64926529 211.51151657 C213.76363194 211.52425593 216.87744273 211.51834811 219.99180603 211.50793457 C221.33308923 211.52001918 221.33308923 211.52001918 222.70146906 211.53234792 C231.24476918 211.46583928 239.36331439 209.91172208 245.73408508 203.88653564 C250.77095904 197.89854985 252.32110815 191.47076135 252.3500061 183.80435181 C252.35716141 182.50069672 252.36431671 181.19704163 252.37168884 179.85388184 C252.37452896 178.41082788 252.37724071 176.96777366 252.37983704 175.52471924 C252.38610433 174.00342657 252.39275137 172.48213543 252.39974976 170.96084595 C252.42076449 165.96603455 252.43115113 160.97122295 252.44111633 155.97637939 C252.44516514 154.2542278 252.4492821 152.53207635 252.45346642 150.80992508 C252.47251402 142.71651962 252.4867448 134.62312324 252.49507838 126.52969968 C252.50484336 117.20114899 252.53114528 107.87283606 252.57157928 98.5443691 C252.6017904 91.32550624 252.61655207 84.10671133 252.6198594 76.88778651 C252.62220458 72.58043207 252.63109513 68.27333174 252.65632057 63.96604538 C252.67969341 59.9095638 252.68379784 55.85350197 252.67355919 51.79697037 C252.67306591 50.3143753 252.67932449 48.83175892 252.69311523 47.34922791 C252.7756595 37.94346921 252.37166717 29.3121143 246.23799133 21.70294189 C245.58701477 21.18731689 244.93603821 20.67169189 244.26533508 20.14044189 C243.61693665 19.60419189 242.96853821 19.06794189 242.30049133 18.51544189 C236.74690622 14.87510305 231.84362806 14.85351052 225.39221191 14.87974548 C223.89969035 14.87400716 223.89969035 14.87400716 222.37701684 14.86815292 C219.03919891 14.8578251 215.70155307 14.86181472 212.36372375 14.86578369 C209.97205445 14.86143706 207.58038654 14.85625408 205.1887207 14.85029602 C199.36401641 14.83828152 193.53936578 14.83575546 187.71465059 14.83809628 C182.9789443 14.83987983 178.243252 14.83812902 173.50754738 14.83387184 C172.83334647 14.83327665 172.15914556 14.83268146 171.46451432 14.83206824 C170.09481984 14.83085647 168.72512536 14.82964234 167.35543088 14.82842586 C154.51052195 14.81754976 141.66563928 14.81971293 128.82072888 14.82581071 C117.07673956 14.83097786 105.33283325 14.81972991 93.58886036 14.80071249 C81.52464319 14.7813266 69.46046527 14.77307954 57.39623243 14.77683574 C50.62534531 14.77874691 43.8545288 14.77626858 37.0836544 14.7621212 C30.71510732 14.74955292 24.34672635 14.75147769 17.97818184 14.76453209 C15.64171671 14.7668997 13.30523992 14.7641566 10.96878815 14.75590897 C7.77713555 14.74545563 4.58604173 14.75353137 1.39440918 14.76622009 C0.47173113 14.75884581 -0.45094693 14.75147152 -1.40158492 14.74387378 C-9.94089199 14.81519894 -16.64616255 16.84964402 -22.79716492 23.14044189 Z " transform="translate(56.79716491699219,20.85955810546875)" style="fill: #ffa94d;"/></svg>