<?xml version="1.0" encoding="UTF-8"?>
<!-- Generator: visioncortex VTracer -->
<svg id="svg" version="1.1" xmlns="http://www.w3.org/2000/svg" style="display: block;" viewBox="0 0 326 292"><path d="M0,0 L1,0 L1,1 L0,1 Z M19,1 L20,1 L20,2 L19,2 Z M1,1 L2,1 L2,4 L3,4 L3,7 L4,7 L4,10 L5,10 L5,13 L6,13 L6,14 L7,14 L7,15 L6,15 L6,16 L7,16 L7,17 L8,17 L8,18 L7,18 L7,19 L8,19 L8,23 L9,23 L9,26 L10,26 L10,29 L11,29 L11,32 L12,32 L12,29 L13,29 L13,26 L14,26 L14,23 L15,23 L15,22 L13,22 L13,19 L14,19 L14,21 L15,21 L15,19 L16,19 L16,18 L14,18 L14,16 L15,16 L15,17 L16,17 L16,16 L17,16 L17,12 L18,12 L18,9 L19,9 L19,5 L20,5 L20,2 L21,2 L21,1 L23,1 L23,2 L24,2 L24,4 L25,4 L25,8 L26,8 L26,14 L27,14 L27,21 L28,21 L28,27 L29,27 L29,31 L30,31 L30,32 L31,32 L31,29 L32,29 L32,28 L33,28 L33,26 L34,26 L34,24 L35,24 L35,21 L36,21 L36,19 L37,19 L37,18 L36,18 L36,17 L38,17 L38,15 L39,15 L39,13 L40,13 L40,11 L41,11 L41,8 L42,8 L42,7 L43,7 L43,5 L45,5 L45,4 L46,4 L46,6 L47,6 L47,14 L48,14 L48,28 L49,28 L49,29 L48,29 L48,36 L50,36 L50,35 L51,35 L51,33 L52,33 L52,31 L53,31 L53,30 L54,30 L54,28 L55,28 L55,27 L56,27 L56,25 L57,25 L57,23 L58,23 L58,22 L59,22 L59,20 L60,20 L60,19 L61,19 L61,17 L62,17 L62,16 L63,16 L63,14 L62,14 L62,13 L65,13 L65,12 L66,12 L66,10 L67,10 L67,9 L69,9 L69,11 L70,11 L70,12 L69,12 L69,13 L71,13 L71,14 L69,14 L69,31 L68,31 L68,36 L69,36 L69,37 L70,37 L70,38 L71,38 L71,37 L72,37 L72,36 L73,36 L73,35 L72,35 L72,34 L73,34 L73,32 L74,32 L74,31 L75,31 L75,33 L76,33 L76,32 L77,32 L77,31 L76,31 L76,29 L77,29 L77,30 L78,30 L78,29 L79,29 L79,28 L80,28 L80,27 L81,27 L81,25 L83,25 L83,24 L84,24 L84,22 L85,22 L85,21 L86,21 L86,19 L88,19 L88,18 L91,18 L91,20 L92,20 L92,22 L91,22 L91,26 L90,26 L90,28 L89,28 L89,32 L88,32 L88,37 L87,37 L87,40 L86,40 L86,44 L85,44 L85,48 L86,48 L86,46 L87,46 L87,47 L89,47 L89,46 L90,46 L90,45 L91,45 L91,44 L93,44 L93,43 L94,43 L94,42 L95,42 L95,41 L96,41 L96,40 L97,40 L97,39 L99,39 L99,37 L101,37 L101,36 L103,36 L103,35 L104,35 L104,34 L105,34 L105,33 L106,33 L106,32 L108,32 L108,31 L109,31 L109,30 L110,30 L110,31 L112,31 L112,35 L111,35 L111,37 L110,37 L110,38 L111,38 L111,39 L109,39 L109,41 L108,41 L108,44 L107,44 L107,46 L106,46 L106,48 L105,48 L105,50 L104,50 L104,52 L103,52 L103,55 L102,55 L102,57 L101,57 L101,59 L100,59 L100,60 L102,60 L102,58 L106,58 L106,57 L108,57 L108,56 L109,56 L109,55 L112,55 L112,54 L113,54 L113,53 L115,53 L115,52 L117,52 L117,51 L119,51 L119,50 L121,50 L121,49 L123,49 L123,48 L125,48 L125,47 L128,47 L128,46 L130,46 L130,47 L131,47 L131,50 L130,50 L130,52 L129,52 L129,53 L128,53 L128,55 L127,55 L127,56 L126,56 L126,58 L125,58 L125,59 L124,59 L124,60 L123,60 L123,62 L122,62 L122,63 L121,63 L121,65 L120,65 L120,66 L119,66 L119,67 L118,67 L118,68 L117,68 L117,70 L116,70 L116,71 L115,71 L115,72 L116,72 L116,73 L119,73 L119,72 L123,72 L123,71 L128,71 L128,70 L131,70 L131,69 L136,69 L136,68 L139,68 L139,67 L144,67 L144,66 L145,66 L145,71 L144,71 L144,72 L143,72 L143,73 L142,73 L142,74 L141,74 L141,75 L140,75 L140,76 L139,76 L139,77 L137,77 L137,79 L136,79 L136,80 L135,80 L135,81 L134,81 L134,82 L132,82 L132,83 L131,83 L131,85 L129,85 L129,86 L128,86 L128,87 L127,87 L127,88 L126,88 L126,89 L125,89 L125,90 L146,90 L146,89 L148,89 L148,90 L149,90 L149,89 L150,89 L150,90 L151,90 L151,89 L152,89 L152,90 L155,90 L155,91 L156,91 L156,94 L155,94 L155,95 L153,95 L153,96 L152,96 L152,97 L150,97 L150,98 L148,98 L148,99 L147,99 L147,100 L145,100 L145,101 L143,101 L143,102 L141,102 L141,103 L139,103 L139,104 L137,104 L137,105 L136,105 L136,106 L134,106 L134,107 L132,107 L132,108 L131,108 L131,109 L133,109 L133,108 L134,108 L134,109 L136,109 L136,110 L142,110 L142,111 L147,111 L147,112 L153,112 L153,113 L159,113 L159,114 L161,114 L161,115 L162,115 L162,117 L161,117 L161,118 L160,118 L160,119 L157,119 L157,120 L154,120 L154,121 L152,121 L152,122 L149,122 L149,123 L147,123 L147,124 L142,124 L142,125 L139,125 L139,126 L135,126 L135,127 L134,127 L134,128 L136,128 L136,129 L139,129 L139,130 L142,130 L142,131 L145,131 L145,132 L147,132 L147,133 L151,133 L151,134 L153,134 L153,135 L155,135 L155,136 L158,136 L158,137 L160,137 L160,138 L161,138 L161,139 L164,139 L164,140 L163,140 L163,141 L162,141 L162,142 L160,142 L160,143 L156,143 L156,144 L155,144 L155,143 L154,143 L154,144 L148,144 L148,145 L140,145 L140,146 L136,146 L136,148 L135,148 L135,149 L137,149 L137,150 L138,150 L138,151 L140,151 L140,152 L141,152 L141,153 L143,153 L143,154 L144,154 L144,155 L146,155 L146,156 L148,156 L148,157 L149,157 L149,156 L150,156 L150,158 L152,158 L152,159 L153,159 L153,160 L154,160 L154,161 L156,161 L156,162 L157,162 L157,165 L155,165 L155,166 L151,166 L151,165 L150,165 L150,166 L148,166 L148,165 L147,165 L147,166 L146,166 L146,165 L131,165 L131,164 L127,164 L127,165 L126,165 L126,166 L127,166 L127,167 L128,167 L128,168 L129,168 L129,169 L131,169 L131,171 L132,171 L132,172 L133,172 L133,173 L135,173 L135,174 L136,174 L136,175 L137,175 L137,176 L139,176 L139,178 L140,178 L140,179 L142,179 L142,181 L144,181 L144,183 L146,183 L146,184 L147,184 L147,188 L141,188 L141,187 L137,187 L137,188 L136,188 L136,186 L132,186 L132,185 L128,185 L128,184 L124,184 L124,183 L118,183 L118,182 L116,182 L116,183 L117,183 L117,184 L118,184 L118,185 L119,185 L119,187 L120,187 L120,188 L121,188 L121,190 L122,190 L122,191 L123,191 L123,193 L124,193 L124,194 L125,194 L125,195 L126,195 L126,197 L127,197 L127,198 L128,198 L128,199 L129,199 L129,200 L130,200 L130,202 L131,202 L131,204 L132,204 L132,207 L131,207 L131,208 L127,208 L127,207 L125,207 L125,206 L124,206 L124,205 L121,205 L121,204 L120,204 L120,203 L117,203 L117,202 L115,202 L115,201 L113,201 L113,200 L111,200 L111,199 L109,199 L109,198 L107,198 L107,197 L105,197 L105,196 L103,196 L103,197 L104,197 L104,199 L105,199 L105,201 L106,201 L106,203 L107,203 L107,205 L108,205 L108,207 L109,207 L109,208 L110,208 L110,211 L111,211 L111,213 L112,213 L112,215 L113,215 L113,217 L114,217 L114,218 L115,218 L115,221 L116,221 L116,224 L115,224 L115,225 L113,225 L113,224 L111,224 L111,223 L110,223 L110,222 L108,222 L108,221 L107,221 L107,220 L106,220 L106,219 L104,219 L104,218 L103,218 L103,217 L101,217 L101,216 L100,216 L100,215 L98,215 L98,214 L97,214 L97,213 L96,213 L96,212 L94,212 L94,211 L93,211 L93,210 L92,210 L92,209 L89,209 L89,207 L87,207 L87,208 L88,208 L88,212 L89,212 L89,215 L90,215 L90,218 L91,218 L91,222 L92,222 L92,225 L93,225 L93,226 L94,226 L94,227 L93,227 L93,229 L94,229 L94,232 L95,232 L95,236 L96,236 L96,238 L95,238 L95,239 L93,239 L93,238 L91,238 L91,237 L90,237 L90,236 L89,236 L89,234 L87,234 L87,232 L86,232 L86,231 L85,231 L85,230 L84,230 L84,229 L83,229 L83,228 L82,228 L82,227 L81,227 L81,226 L80,226 L80,225 L79,225 L79,224 L78,224 L78,223 L77,223 L77,222 L76,222 L76,220 L75,220 L75,219 L73,219 L73,217 L72,217 L72,216 L71,216 L71,215 L70,215 L70,219 L71,219 L71,220 L70,220 L70,221 L71,221 L71,224 L72,224 L72,223 L73,223 L73,225 L71,225 L71,230 L72,230 L72,242 L73,242 L73,247 L72,247 L72,248 L69,248 L69,247 L68,247 L68,245 L67,245 L67,244 L66,244 L66,243 L65,243 L65,241 L64,241 L64,240 L63,240 L63,239 L62,239 L62,237 L61,237 L61,236 L60,236 L60,235 L59,235 L59,233 L58,233 L58,231 L57,231 L57,229 L56,229 L56,228 L55,228 L55,227 L54,227 L54,225 L53,225 L53,223 L52,223 L52,222 L51,222 L51,226 L50,226 L50,243 L49,243 L49,246 L50,246 L50,247 L49,247 L49,250 L50,250 L50,251 L49,251 L49,253 L48,253 L48,254 L47,254 L47,255 L46,255 L46,253 L45,253 L45,252 L44,252 L44,250 L43,250 L43,248 L42,248 L42,247 L41,247 L41,244 L40,244 L40,242 L37,242 L37,241 L38,241 L38,238 L37,238 L37,236 L36,236 L36,234 L34,234 L34,235 L33,235 L33,233 L32,233 L32,230 L31,230 L31,231 L30,231 L30,236 L29,236 L29,242 L28,242 L28,246 L27,246 L27,252 L26,252 L26,253 L28,253 L28,254 L26,254 L26,256 L25,256 L25,257 L24,257 L24,258 L23,258 L23,257 L22,257 L22,256 L21,256 L21,254 L20,254 L20,255 L18,255 L18,251 L19,251 L19,249 L18,249 L18,246 L17,246 L17,245 L18,245 L18,244 L17,244 L17,240 L16,240 L16,236 L15,236 L15,233 L14,233 L14,229 L13,229 L13,226 L12,226 L12,229 L11,229 L11,233 L10,233 L10,234 L11,234 L11,235 L9,235 L9,238 L8,238 L8,242 L7,242 L7,246 L6,246 L6,249 L5,249 L5,253 L4,253 L4,255 L3,255 L3,257 L0,257 L0,256 L-1,256 L-1,253 L-2,253 L-2,249 L-3,249 L-3,248 L-2,248 L-2,247 L-3,247 L-3,246 L-5,246 L-5,244 L-4,244 L-4,245 L-3,245 L-3,240 L-4,240 L-4,233 L-5,233 L-5,229 L-6,229 L-6,230 L-9,230 L-9,232 L-10,232 L-10,234 L-11,234 L-11,236 L-12,236 L-12,238 L-13,238 L-13,241 L-14,241 L-14,243 L-15,243 L-15,245 L-16,245 L-16,247 L-17,247 L-17,248 L-15,248 L-15,249 L-16,249 L-16,251 L-17,251 L-17,249 L-18,249 L-18,251 L-19,251 L-19,252 L-21,252 L-21,253 L-22,253 L-22,252 L-23,252 L-23,250 L-24,250 L-24,248 L-23,248 L-23,230 L-25,230 L-25,229 L-23,229 L-23,228 L-27,228 L-27,226 L-28,226 L-28,227 L-29,227 L-29,229 L-30,229 L-30,231 L-31,231 L-31,232 L-32,232 L-32,233 L-33,233 L-33,235 L-34,235 L-34,237 L-35,237 L-35,238 L-36,238 L-36,240 L-37,240 L-37,242 L-38,242 L-38,243 L-39,243 L-39,244 L-40,244 L-40,246 L-42,246 L-42,247 L-43,247 L-43,248 L-44,248 L-44,247 L-45,247 L-45,243 L-47,243 L-47,242 L-45,242 L-45,238 L-44,238 L-44,235 L-45,235 L-45,234 L-44,234 L-44,231 L-43,231 L-43,224 L-42,224 L-42,216 L-43,216 L-43,217 L-44,217 L-44,218 L-45,218 L-45,219 L-46,219 L-46,220 L-47,220 L-47,222 L-49,222 L-49,224 L-50,224 L-50,225 L-51,225 L-51,226 L-52,226 L-52,227 L-53,227 L-53,229 L-54,229 L-54,230 L-55,230 L-55,231 L-56,231 L-56,232 L-57,232 L-57,233 L-58,233 L-58,234 L-59,234 L-59,238 L-60,238 L-60,237 L-61,237 L-61,238 L-62,238 L-62,239 L-65,239 L-65,237 L-67,237 L-67,236 L-66,236 L-66,235 L-65,235 L-65,233 L-67,233 L-67,231 L-66,231 L-66,232 L-65,232 L-65,230 L-64,230 L-64,226 L-63,226 L-63,222 L-62,222 L-62,220 L-63,220 L-63,221 L-64,221 L-64,218 L-63,218 L-63,219 L-61,219 L-61,215 L-60,215 L-60,211 L-59,211 L-59,208 L-58,208 L-58,207 L-60,207 L-60,209 L-61,209 L-61,210 L-63,210 L-63,211 L-64,211 L-64,212 L-65,212 L-65,213 L-66,213 L-66,214 L-67,214 L-67,215 L-69,215 L-69,216 L-70,216 L-70,217 L-71,217 L-71,218 L-72,218 L-72,219 L-73,219 L-73,220 L-75,220 L-75,221 L-76,221 L-76,222 L-77,222 L-77,223 L-79,223 L-79,225 L-81,225 L-81,226 L-84,226 L-84,227 L-85,227 L-85,223 L-87,223 L-87,221 L-86,221 L-86,222 L-85,222 L-85,220 L-84,220 L-84,219 L-85,219 L-85,218 L-83,218 L-83,216 L-82,216 L-82,213 L-81,213 L-81,211 L-80,211 L-80,209 L-79,209 L-79,206 L-78,206 L-78,204 L-77,204 L-77,201 L-76,201 L-76,200 L-75,200 L-75,199 L-76,199 L-76,198 L-78,198 L-78,199 L-79,199 L-79,200 L-81,200 L-81,201 L-83,201 L-83,202 L-85,202 L-85,203 L-87,203 L-87,204 L-88,204 L-88,205 L-90,205 L-90,206 L-91,206 L-91,207 L-93,207 L-93,208 L-95,208 L-95,209 L-97,209 L-97,210 L-96,210 L-96,211 L-98,211 L-98,210 L-100,210 L-100,211 L-101,211 L-101,210 L-102,210 L-102,209 L-103,209 L-103,206 L-102,206 L-102,204 L-101,204 L-101,203 L-100,203 L-100,202 L-99,202 L-99,200 L-98,200 L-98,199 L-97,199 L-97,197 L-96,197 L-96,196 L-95,196 L-95,194 L-94,194 L-94,193 L-93,193 L-93,192 L-92,192 L-92,190 L-91,190 L-91,189 L-90,189 L-90,186 L-89,186 L-89,184 L-91,184 L-91,185 L-95,185 L-95,186 L-99,186 L-99,187 L-102,187 L-102,188 L-104,188 L-104,189 L-105,189 L-105,188 L-106,188 L-106,189 L-109,189 L-109,190 L-113,190 L-113,191 L-116,191 L-116,190 L-117,190 L-117,189 L-118,189 L-118,188 L-117,188 L-117,187 L-116,187 L-116,186 L-115,186 L-115,184 L-114,184 L-114,183 L-112,183 L-112,181 L-111,181 L-111,180 L-110,180 L-110,179 L-109,179 L-109,178 L-107,178 L-107,176 L-106,176 L-106,175 L-105,175 L-105,174 L-103,174 L-103,172 L-104,172 L-104,171 L-103,171 L-103,170 L-102,170 L-102,169 L-105,169 L-105,168 L-100,168 L-100,167 L-107,167 L-107,168 L-115,168 L-115,169 L-123,169 L-123,170 L-126,170 L-126,169 L-129,169 L-129,168 L-128,168 L-128,166 L-127,166 L-127,165 L-126,165 L-126,164 L-125,164 L-125,163 L-124,163 L-124,162 L-123,162 L-123,161 L-121,161 L-121,160 L-122,160 L-122,159 L-120,159 L-120,160 L-119,160 L-119,158 L-117,158 L-117,157 L-116,157 L-116,156 L-114,156 L-114,155 L-112,155 L-112,154 L-111,154 L-111,153 L-109,153 L-109,152 L-108,152 L-108,151 L-106,151 L-106,150 L-105,150 L-105,148 L-113,148 L-113,147 L-120,147 L-120,146 L-129,146 L-129,145 L-132,145 L-132,144 L-134,144 L-134,142 L-133,142 L-133,141 L-132,141 L-132,140 L-130,140 L-130,139 L-129,139 L-129,138 L-126,138 L-126,137 L-124,137 L-124,136 L-121,136 L-121,135 L-119,135 L-119,134 L-116,134 L-116,133 L-114,133 L-114,132 L-112,132 L-112,131 L-108,131 L-108,129 L-111,129 L-111,128 L-113,128 L-113,127 L-116,127 L-116,126 L-120,126 L-120,125 L-122,125 L-122,124 L-125,124 L-125,123 L-128,123 L-128,122 L-131,122 L-131,121 L-132,121 L-132,122 L-134,122 L-134,121 L-133,121 L-133,120 L-134,120 L-134,117 L-132,117 L-132,116 L-130,116 L-130,115 L-126,115 L-126,114 L-121,114 L-121,113 L-115,113 L-115,112 L-109,112 L-109,111 L-103,111 L-103,110 L-105,110 L-105,109 L-106,109 L-106,108 L-107,108 L-107,107 L-109,107 L-109,106 L-111,106 L-111,105 L-112,105 L-112,104 L-114,104 L-114,103 L-116,103 L-116,102 L-117,102 L-117,101 L-119,101 L-119,100 L-120,100 L-120,99 L-122,99 L-122,98 L-123,98 L-123,97 L-124,97 L-124,96 L-126,96 L-126,95 L-127,95 L-127,91 L-104,91 L-104,92 L-102,92 L-102,91 L-100,91 L-100,92 L-97,92 L-97,91 L-98,91 L-98,90 L-99,90 L-99,89 L-101,89 L-101,88 L-102,88 L-102,87 L-103,87 L-103,86 L-105,86 L-105,85 L-106,85 L-106,84 L-107,84 L-107,83 L-108,83 L-108,82 L-109,82 L-109,81 L-110,81 L-110,80 L-111,80 L-111,79 L-113,79 L-113,78 L-114,78 L-114,76 L-115,76 L-115,75 L-116,75 L-116,74 L-117,74 L-117,73 L-118,73 L-118,71 L-117,71 L-117,70 L-112,70 L-112,71 L-107,71 L-107,72 L-103,72 L-103,73 L-99,73 L-99,74 L-95,74 L-95,75 L-93,75 L-93,73 L-91,73 L-91,74 L-92,74 L-92,75 L-90,75 L-90,76 L-87,76 L-87,75 L-88,75 L-88,74 L-89,74 L-89,73 L-90,73 L-90,72 L-91,72 L-91,70 L-92,70 L-92,69 L-93,69 L-93,67 L-95,67 L-95,65 L-96,65 L-96,64 L-97,64 L-97,63 L-98,63 L-98,62 L-99,62 L-99,60 L-100,60 L-100,59 L-101,59 L-101,58 L-102,58 L-102,56 L-103,56 L-103,52 L-102,52 L-102,51 L-100,51 L-100,50 L-98,50 L-98,51 L-99,51 L-99,52 L-97,52 L-97,53 L-95,53 L-95,54 L-93,54 L-93,55 L-90,55 L-90,56 L-88,56 L-88,57 L-86,57 L-86,58 L-84,58 L-84,59 L-81,59 L-81,60 L-79,60 L-79,61 L-77,61 L-77,62 L-75,62 L-75,59 L-76,59 L-76,58 L-77,58 L-77,56 L-78,56 L-78,54 L-79,54 L-79,52 L-80,52 L-80,51 L-81,51 L-81,49 L-82,49 L-82,47 L-83,47 L-83,45 L-84,45 L-84,43 L-85,43 L-85,41 L-86,41 L-86,39 L-87,39 L-87,36 L-86,36 L-86,35 L-84,35 L-84,36 L-82,36 L-82,37 L-81,37 L-81,38 L-79,38 L-79,39 L-78,39 L-78,40 L-76,40 L-76,41 L-75,41 L-75,42 L-73,42 L-73,43 L-72,43 L-72,44 L-71,44 L-71,45 L-69,45 L-69,46 L-68,46 L-68,47 L-66,47 L-66,48 L-65,48 L-65,49 L-64,49 L-64,47 L-63,47 L-63,50 L-62,50 L-62,51 L-61,51 L-61,52 L-59,52 L-59,53 L-58,53 L-58,54 L-57,54 L-57,52 L-58,52 L-58,51 L-59,51 L-59,48 L-60,48 L-60,44 L-61,44 L-61,41 L-62,41 L-62,39 L-63,39 L-63,35 L-64,35 L-64,32 L-65,32 L-65,28 L-66,28 L-66,23 L-62,23 L-62,24 L-61,24 L-61,25 L-60,25 L-60,26 L-59,26 L-59,27 L-58,27 L-58,28 L-57,28 L-57,29 L-56,29 L-56,31 L-54,31 L-54,32 L-53,32 L-53,33 L-52,33 L-52,34 L-51,34 L-51,35 L-50,35 L-50,36 L-49,36 L-49,37 L-48,37 L-48,38 L-47,38 L-47,40 L-45,40 L-45,41 L-44,41 L-44,42 L-43,42 L-43,43 L-42,43 L-42,45 L-41,45 L-41,42 L-42,42 L-42,41 L-43,41 L-43,40 L-42,40 L-42,36 L-44,36 L-44,35 L-43,35 L-43,30 L-44,30 L-44,24 L-45,24 L-45,13 L-42,13 L-42,14 L-41,14 L-41,15 L-40,15 L-40,17 L-39,17 L-39,19 L-38,19 L-38,20 L-37,20 L-37,22 L-36,22 L-36,23 L-35,23 L-35,25 L-34,25 L-34,26 L-33,26 L-33,27 L-32,27 L-32,29 L-31,29 L-31,30 L-30,30 L-30,31 L-29,31 L-29,30 L-28,30 L-28,31 L-27,31 L-27,32 L-29,32 L-29,33 L-28,33 L-28,34 L-27,34 L-27,35 L-26,35 L-26,36 L-25,36 L-25,39 L-24,39 L-24,40 L-23,40 L-23,38 L-24,38 L-24,33 L-25,33 L-25,31 L-24,31 L-24,7 L-23,7 L-23,6 L-21,6 L-21,7 L-20,7 L-20,8 L-19,8 L-19,10 L-18,10 L-18,12 L-17,12 L-17,14 L-16,14 L-16,16 L-15,16 L-15,18 L-14,18 L-14,19 L-13,19 L-13,21 L-12,21 L-12,24 L-11,24 L-11,26 L-10,26 L-10,27 L-9,27 L-9,29 L-5,29 L-5,28 L-7,28 L-7,27 L-5,27 L-5,25 L-4,25 L-4,24 L-5,24 L-5,23 L-4,23 L-4,17 L-3,17 L-3,8 L-2,8 L-2,3 L-1,3 L-1,2 L1,2 Z M2,28 L2,35 L1,35 L1,42 L0,42 L0,46 L1,46 L1,47 L0,47 L0,48 L-1,48 L-1,50 L-3,50 L-3,51 L-5,51 L-5,50 L-6,50 L-6,49 L-7,49 L-7,47 L-8,47 L-8,45 L-9,45 L-9,44 L-10,44 L-10,43 L-11,43 L-11,40 L-12,40 L-12,38 L-14,38 L-14,37 L-13,37 L-13,36 L-15,36 L-15,32 L-16,32 L-16,31 L-17,31 L-17,33 L-16,33 L-16,34 L-17,34 L-17,35 L-16,35 L-16,37 L-17,37 L-17,48 L-16,48 L-16,49 L-17,49 L-17,53 L-18,53 L-18,54 L-19,54 L-19,55 L-21,55 L-21,54 L-23,54 L-23,53 L-24,53 L-24,51 L-25,51 L-25,50 L-26,50 L-26,48 L-27,48 L-27,47 L-28,47 L-28,45 L-29,45 L-29,44 L-30,44 L-30,43 L-31,43 L-31,41 L-32,41 L-32,40 L-33,40 L-33,39 L-34,39 L-34,42 L-32,42 L-32,43 L-34,43 L-34,46 L-33,46 L-33,59 L-35,59 L-35,60 L-36,60 L-36,59 L-39,59 L-39,57 L-40,57 L-40,56 L-42,56 L-42,55 L-43,55 L-43,54 L-44,54 L-44,52 L-45,52 L-45,51 L-46,51 L-46,53 L-47,53 L-47,50 L-48,50 L-48,48 L-50,48 L-50,47 L-51,47 L-51,49 L-50,49 L-50,54 L-49,54 L-49,57 L-48,57 L-48,61 L-47,61 L-47,64 L-48,64 L-48,66 L-49,66 L-49,67 L-51,67 L-51,66 L-53,66 L-53,65 L-55,65 L-55,64 L-57,64 L-57,63 L-58,63 L-58,62 L-59,62 L-59,61 L-61,61 L-61,60 L-62,60 L-62,59 L-64,59 L-64,58 L-65,58 L-65,57 L-67,57 L-67,56 L-68,56 L-68,58 L-67,58 L-67,60 L-66,60 L-66,62 L-65,62 L-65,63 L-64,63 L-64,65 L-63,65 L-63,67 L-62,67 L-62,69 L-61,69 L-61,71 L-60,71 L-60,74 L-61,74 L-61,75 L-62,75 L-62,76 L-63,76 L-63,75 L-67,75 L-67,74 L-69,74 L-69,73 L-70,73 L-70,75 L-71,75 L-71,72 L-74,72 L-74,71 L-76,71 L-76,70 L-78,70 L-78,69 L-81,69 L-81,68 L-83,68 L-83,69 L-82,69 L-82,71 L-81,71 L-81,72 L-80,72 L-80,73 L-79,73 L-79,74 L-78,74 L-78,75 L-77,75 L-77,76 L-76,76 L-76,77 L-75,77 L-75,79 L-74,79 L-74,80 L-73,80 L-73,86 L-74,86 L-74,87 L-79,87 L-79,86 L-83,86 L-83,85 L-84,85 L-84,86 L-85,86 L-85,85 L-87,85 L-87,84 L-90,84 L-90,83 L-94,83 L-94,82 L-96,82 L-96,83 L-95,83 L-95,84 L-93,84 L-93,85 L-92,85 L-92,86 L-91,86 L-91,87 L-90,87 L-90,88 L-89,88 L-89,89 L-88,89 L-88,90 L-87,90 L-87,91 L-85,91 L-85,93 L-84,93 L-84,94 L-82,94 L-82,96 L-81,96 L-81,98 L-82,98 L-82,99 L-83,99 L-83,100 L-98,100 L-98,99 L-106,99 L-106,100 L-105,100 L-105,101 L-103,101 L-103,100 L-102,100 L-102,102 L-100,102 L-100,104 L-98,104 L-98,105 L-96,105 L-96,106 L-95,106 L-95,107 L-93,107 L-93,108 L-91,108 L-91,109 L-90,109 L-90,110 L-89,110 L-89,111 L-88,111 L-88,114 L-89,114 L-89,115 L-92,115 L-92,116 L-96,116 L-96,117 L-100,117 L-100,118 L-106,118 L-106,119 L-112,119 L-112,120 L-111,120 L-111,121 L-107,121 L-107,122 L-104,122 L-104,123 L-101,123 L-101,124 L-97,124 L-97,125 L-95,125 L-95,126 L-92,126 L-92,127 L-91,127 L-91,128 L-90,128 L-90,131 L-91,131 L-91,132 L-92,132 L-92,133 L-94,133 L-94,134 L-97,134 L-97,135 L-99,135 L-99,136 L-102,136 L-102,137 L-105,137 L-105,138 L-106,138 L-106,139 L-107,139 L-107,138 L-108,138 L-108,139 L-109,139 L-109,140 L-105,140 L-105,141 L-96,141 L-96,142 L-95,142 L-95,141 L-94,141 L-94,142 L-91,142 L-91,143 L-89,143 L-89,145 L-88,145 L-88,147 L-89,147 L-89,148 L-90,148 L-90,149 L-91,149 L-91,150 L-93,150 L-93,151 L-94,151 L-94,152 L-96,152 L-96,153 L-97,153 L-97,154 L-99,154 L-99,155 L-100,155 L-100,156 L-102,156 L-102,157 L-103,157 L-103,158 L-104,158 L-104,159 L-106,159 L-106,160 L-103,160 L-103,159 L-102,159 L-102,160 L-101,160 L-101,159 L-100,159 L-100,157 L-99,157 L-99,159 L-95,159 L-95,158 L-94,158 L-94,159 L-93,159 L-93,158 L-84,158 L-84,159 L-83,159 L-83,161 L-82,161 L-82,162 L-83,162 L-83,163 L-84,163 L-84,165 L-85,165 L-85,167 L-87,167 L-87,168 L-88,168 L-88,169 L-89,169 L-89,170 L-87,170 L-87,171 L-90,171 L-90,172 L-91,172 L-91,173 L-92,173 L-92,174 L-93,174 L-93,175 L-94,175 L-94,176 L-95,176 L-95,177 L-92,177 L-92,176 L-89,176 L-89,175 L-86,175 L-86,174 L-84,174 L-84,172 L-83,172 L-83,173 L-78,173 L-78,172 L-76,172 L-76,173 L-75,173 L-75,175 L-74,175 L-74,177 L-75,177 L-75,179 L-76,179 L-76,181 L-77,181 L-77,182 L-78,182 L-78,184 L-79,184 L-79,185 L-80,185 L-80,186 L-79,186 L-79,187 L-81,187 L-81,189 L-82,189 L-82,190 L-83,190 L-83,191 L-84,191 L-84,192 L-85,192 L-85,194 L-84,194 L-84,193 L-83,193 L-83,192 L-81,192 L-81,191 L-80,191 L-80,190 L-79,190 L-79,189 L-77,189 L-77,188 L-75,188 L-75,186 L-76,186 L-76,185 L-74,185 L-74,187 L-73,187 L-73,186 L-71,186 L-71,185 L-69,185 L-69,184 L-67,184 L-67,183 L-65,183 L-65,184 L-64,184 L-64,185 L-63,185 L-63,190 L-64,190 L-64,194 L-65,194 L-65,195 L-66,195 L-66,198 L-67,198 L-67,200 L-68,200 L-68,204 L-66,204 L-66,203 L-65,203 L-65,202 L-64,202 L-64,201 L-63,201 L-63,200 L-62,200 L-62,199 L-61,199 L-61,198 L-59,198 L-59,197 L-58,197 L-58,196 L-57,196 L-57,195 L-56,195 L-56,194 L-55,194 L-55,193 L-51,193 L-51,194 L-50,194 L-50,200 L-48,200 L-48,202 L-50,202 L-50,203 L-51,203 L-51,207 L-52,207 L-52,211 L-53,211 L-53,213 L-52,213 L-52,214 L-53,214 L-53,215 L-54,215 L-54,216 L-52,216 L-52,215 L-51,215 L-51,213 L-50,213 L-50,212 L-51,212 L-51,209 L-49,209 L-49,210 L-50,210 L-50,211 L-48,211 L-48,210 L-47,210 L-47,208 L-45,208 L-45,206 L-44,206 L-44,205 L-43,205 L-43,204 L-42,204 L-42,203 L-41,203 L-41,202 L-40,202 L-40,201 L-39,201 L-39,200 L-35,200 L-35,201 L-34,201 L-34,212 L-33,212 L-33,213 L-34,213 L-34,215 L-33,215 L-33,216 L-35,216 L-35,223 L-34,223 L-34,222 L-33,222 L-33,220 L-32,220 L-32,219 L-31,219 L-31,217 L-30,217 L-30,215 L-29,215 L-29,214 L-28,214 L-28,212 L-27,212 L-27,210 L-26,210 L-26,209 L-25,209 L-25,208 L-24,208 L-24,206 L-23,206 L-23,205 L-21,205 L-21,204 L-20,204 L-20,205 L-18,205 L-18,209 L-17,209 L-17,222 L-16,222 L-16,227 L-15,227 L-15,224 L-14,224 L-14,223 L-13,223 L-13,221 L-12,221 L-12,219 L-11,219 L-11,216 L-10,216 L-10,214 L-9,214 L-9,212 L-8,212 L-8,210 L-7,210 L-7,208 L-2,208 L-2,210 L-1,210 L-1,212 L0,212 L0,218 L1,218 L1,224 L2,224 L2,230 L4,230 L4,227 L5,227 L5,226 L3,226 L3,223 L4,223 L4,225 L5,225 L5,224 L6,224 L6,220 L7,220 L7,218 L6,218 L6,217 L8,217 L8,214 L9,214 L9,213 L7,213 L7,212 L9,212 L9,211 L10,211 L10,210 L11,210 L11,209 L12,209 L12,208 L13,208 L13,209 L14,209 L14,210 L15,210 L15,211 L16,211 L16,214 L17,214 L17,217 L18,217 L18,221 L19,221 L19,223 L20,223 L20,228 L21,228 L21,232 L22,232 L22,233 L23,233 L23,226 L24,226 L24,223 L25,223 L25,218 L26,218 L26,213 L27,213 L27,211 L26,211 L26,210 L28,210 L28,209 L29,209 L29,208 L31,208 L31,209 L32,209 L32,210 L33,210 L33,211 L34,211 L34,210 L35,210 L35,212 L34,212 L34,214 L35,214 L35,216 L36,216 L36,218 L37,218 L37,221 L38,221 L38,223 L39,223 L39,225 L40,225 L40,227 L41,227 L41,228 L42,228 L42,229 L41,229 L41,230 L42,230 L42,232 L43,232 L43,225 L44,225 L44,213 L45,213 L45,207 L46,207 L46,206 L47,206 L47,205 L49,205 L49,206 L50,206 L50,207 L51,207 L51,209 L52,209 L52,210 L53,210 L53,211 L54,211 L54,213 L55,213 L55,215 L56,215 L56,216 L57,216 L57,218 L58,218 L58,219 L59,219 L59,221 L60,221 L60,220 L61,220 L61,215 L62,215 L62,203 L60,203 L60,202 L62,202 L62,201 L63,201 L63,199 L65,199 L65,200 L67,200 L67,201 L68,201 L68,202 L69,202 L69,203 L70,203 L70,205 L72,205 L72,206 L73,206 L73,207 L74,207 L74,208 L75,208 L75,209 L76,209 L76,210 L77,210 L77,212 L78,212 L78,213 L80,213 L80,215 L82,215 L82,214 L81,214 L81,210 L80,210 L80,207 L78,207 L78,206 L79,206 L79,203 L78,203 L78,199 L77,199 L77,198 L75,198 L75,194 L76,194 L76,197 L77,197 L77,193 L78,193 L78,192 L82,192 L82,193 L83,193 L83,194 L85,194 L85,195 L86,195 L86,194 L87,194 L87,196 L88,196 L88,197 L89,197 L89,198 L90,198 L90,199 L91,199 L91,200 L93,200 L93,201 L94,201 L94,202 L95,202 L95,203 L97,203 L97,204 L98,204 L98,202 L97,202 L97,200 L96,200 L96,198 L95,198 L95,196 L94,196 L94,195 L93,195 L93,194 L92,194 L92,193 L93,193 L93,192 L92,192 L92,189 L90,189 L90,188 L91,188 L91,185 L90,185 L90,184 L91,184 L91,183 L93,183 L93,182 L94,182 L94,183 L97,183 L97,184 L99,184 L99,185 L101,185 L101,186 L103,186 L103,187 L105,187 L105,188 L107,188 L107,189 L109,189 L109,190 L111,190 L111,191 L113,191 L113,190 L112,190 L112,189 L111,189 L111,187 L110,187 L110,186 L109,186 L109,184 L108,184 L108,183 L105,183 L105,182 L107,182 L107,181 L106,181 L106,180 L105,180 L105,178 L103,178 L103,177 L104,177 L104,176 L102,176 L102,175 L103,175 L103,173 L104,173 L104,172 L105,172 L105,171 L108,171 L108,172 L112,172 L112,173 L116,173 L116,174 L120,174 L120,175 L125,175 L125,174 L124,174 L124,173 L123,173 L123,172 L122,172 L122,173 L121,173 L121,171 L120,171 L120,169 L118,169 L118,168 L117,168 L117,167 L116,167 L116,165 L115,165 L115,164 L113,164 L113,163 L112,163 L112,161 L109,161 L109,160 L111,160 L111,159 L109,159 L109,158 L112,158 L112,157 L113,157 L113,156 L114,156 L114,157 L117,157 L117,156 L118,156 L118,157 L133,157 L133,156 L131,156 L131,155 L129,155 L129,154 L128,154 L128,153 L126,153 L126,152 L125,152 L125,151 L123,151 L123,150 L121,150 L121,149 L120,149 L120,148 L119,148 L119,147 L118,147 L118,146 L116,146 L116,142 L117,142 L117,141 L119,141 L119,140 L124,140 L124,139 L125,139 L125,140 L126,140 L126,139 L134,139 L134,138 L138,138 L138,137 L135,137 L135,136 L133,136 L133,135 L130,135 L130,134 L127,134 L127,133 L125,133 L125,132 L122,132 L122,131 L120,131 L120,130 L118,130 L118,129 L117,129 L117,128 L116,128 L116,127 L118,127 L118,125 L117,125 L117,124 L119,124 L119,125 L120,125 L120,124 L122,124 L122,123 L125,123 L125,122 L128,122 L128,121 L131,121 L131,120 L134,120 L134,119 L137,119 L137,118 L136,118 L136,117 L133,117 L133,116 L127,116 L127,115 L126,115 L126,116 L125,116 L125,115 L123,115 L123,114 L119,114 L119,113 L116,113 L116,112 L115,112 L115,109 L116,109 L116,108 L117,108 L117,107 L118,107 L118,106 L117,106 L117,105 L118,105 L118,104 L119,104 L119,106 L120,106 L120,105 L121,105 L121,104 L123,104 L123,103 L125,103 L125,102 L126,102 L126,101 L128,101 L128,100 L130,100 L130,99 L133,99 L133,98 L134,98 L134,97 L131,97 L131,98 L130,98 L130,97 L128,97 L128,98 L127,98 L127,97 L126,97 L126,98 L124,98 L124,97 L123,97 L123,98 L118,98 L118,99 L117,99 L117,98 L111,98 L111,97 L110,97 L110,96 L109,96 L109,94 L110,94 L110,93 L111,93 L111,92 L112,92 L112,91 L113,91 L113,89 L115,89 L115,88 L116,88 L116,87 L117,87 L117,85 L119,85 L119,84 L120,84 L120,83 L121,83 L121,82 L122,82 L122,81 L124,81 L124,79 L123,79 L123,80 L121,80 L121,81 L120,81 L120,80 L119,80 L119,81 L115,81 L115,82 L110,82 L110,83 L106,83 L106,84 L102,84 L102,83 L101,83 L101,78 L102,78 L102,77 L103,77 L103,75 L104,75 L104,74 L105,74 L105,72 L106,72 L106,71 L107,71 L107,69 L109,69 L109,67 L110,67 L110,66 L111,66 L111,65 L112,65 L112,63 L110,63 L110,64 L108,64 L108,65 L106,65 L106,66 L104,66 L104,67 L102,67 L102,68 L100,68 L100,69 L98,69 L98,70 L96,70 L96,71 L94,71 L94,72 L92,72 L92,73 L89,73 L89,72 L88,72 L88,67 L87,67 L87,66 L89,66 L89,64 L90,64 L90,62 L91,62 L91,60 L92,60 L92,58 L93,58 L93,56 L94,56 L94,53 L95,53 L95,51 L94,51 L94,52 L93,52 L93,53 L92,53 L92,54 L90,54 L90,55 L89,55 L89,56 L88,56 L88,57 L87,57 L87,58 L85,58 L85,59 L83,59 L83,60 L82,60 L82,61 L81,61 L81,62 L80,62 L80,63 L78,63 L78,64 L77,64 L77,63 L74,63 L74,62 L73,62 L73,60 L74,60 L74,56 L75,56 L75,53 L76,53 L76,51 L75,51 L75,50 L76,50 L76,48 L77,48 L77,45 L78,45 L78,41 L77,41 L77,43 L76,43 L76,44 L75,44 L75,45 L74,45 L74,46 L73,46 L73,47 L72,47 L72,49 L70,49 L70,50 L69,50 L69,51 L68,51 L68,52 L67,52 L67,54 L66,54 L66,55 L64,55 L64,56 L63,56 L63,57 L60,57 L60,56 L59,56 L59,46 L60,46 L60,38 L61,38 L61,33 L60,33 L60,34 L59,34 L59,36 L58,36 L58,37 L57,37 L57,39 L56,39 L56,40 L55,40 L55,42 L54,42 L54,43 L53,43 L53,44 L52,44 L52,46 L51,46 L51,48 L50,48 L50,49 L49,49 L49,51 L48,51 L48,52 L43,52 L43,49 L41,49 L41,48 L42,48 L42,40 L41,40 L41,44 L40,44 L40,39 L42,39 L42,34 L41,34 L41,28 L40,28 L40,31 L39,31 L39,33 L38,33 L38,35 L37,35 L37,37 L36,37 L36,39 L35,39 L35,41 L34,41 L34,43 L33,43 L33,45 L32,45 L32,46 L33,46 L33,47 L31,47 L31,49 L30,49 L30,50 L27,50 L27,49 L26,49 L26,48 L25,48 L25,44 L24,44 L24,43 L23,43 L23,44 L22,44 L22,41 L24,41 L24,40 L23,40 L23,39 L22,39 L22,38 L23,38 L23,34 L22,34 L22,33 L21,33 L21,32 L22,32 L22,29 L21,29 L21,28 L20,28 L20,32 L19,32 L19,35 L18,35 L18,39 L17,39 L17,42 L16,42 L16,45 L15,45 L15,47 L14,47 L14,49 L10,49 L10,48 L9,48 L9,46 L7,46 L7,45 L8,45 L8,44 L7,44 L7,41 L6,41 L6,38 L5,38 L5,35 L4,35 L4,34 L3,34 L3,33 L4,33 L4,31 L3,31 L3,28 Z M-7,30 L-7,31 L-6,31 L-6,32 L-5,32 L-5,30 Z M-7,33 L-7,34 L-6,34 L-6,33 Z M29,33 L29,34 L30,34 L30,33 Z M74,33 L74,34 L75,34 L75,33 Z M-35,37 L-35,38 L-34,38 L-34,37 Z M68,38 L68,40 L69,40 L69,39 L70,39 L70,38 Z M78,40 L78,41 L79,41 L79,40 Z M-52,45 L-52,47 L-51,47 L-51,45 Z M84,48 L84,50 L85,50 L85,48 Z M95,50 L95,51 L96,51 L96,50 Z M-69,55 L-69,56 L-68,56 L-68,55 Z M-75,62 L-75,63 L-74,63 L-74,62 Z M112,62 L112,63 L113,63 L113,62 Z M-84,67 L-84,68 L-83,68 L-83,67 Z M113,73 L113,74 L115,74 L115,73 Z M-87,76 L-87,77 L-86,77 L-86,76 Z M137,117 L137,118 L139,118 L139,117 Z M-111,139 L-111,140 L-110,140 L-110,139 Z M132,146 L132,147 L133,147 L133,148 L135,148 L135,147 L134,147 L134,146 Z M125,164 L125,165 L126,165 L126,164 Z M-98,166 L-98,167 L-99,167 L-99,168 L-100,168 L-100,169 L-101,169 L-101,171 L-100,171 L-100,170 L-99,170 L-99,169 L-98,169 L-98,168 L-97,168 L-97,167 L-96,167 L-96,166 Z M-102,171 L-102,172 L-101,172 L-101,171 Z M125,175 L125,176 L126,176 L126,175 Z M126,176 L126,177 L127,177 L127,176 Z M-97,177 L-97,178 L-95,178 L-95,177 Z M-88,183 L-88,184 L-87,184 L-87,183 Z M-75,196 L-75,197 L-74,197 L-74,196 Z M-76,197 L-76,198 L-75,198 L-75,197 Z M-70,204 L-70,206 L-71,206 L-71,208 L-70,208 L-70,207 L-69,207 L-69,206 L-68,206 L-68,204 Z M98,204 L98,205 L99,205 L99,204 Z M-42,214 L-42,216 L-41,216 L-41,214 Z M62,216 L62,221 L60,221 L60,222 L61,222 L61,223 L62,223 L62,225 L63,225 L63,216 Z M-24,220 L-24,221 L-23,221 L-23,220 Z M-25,221 L-25,222 L-24,222 L-24,221 Z M-36,223 L-36,225 L-35,225 L-35,223 Z M-26,223 L-26,225 L-25,225 L-25,224 L-24,224 L-24,223 Z M-6,224 L-6,227 L-7,227 L-7,228 L-8,228 L-8,229 L-6,229 L-6,228 L-5,228 L-5,224 Z M-27,225 L-27,226 L-26,226 L-26,225 Z M-25,225 L-25,227 L-24,227 L-24,225 Z M31,226 L31,229 L33,229 L33,228 L32,228 L32,226 Z M-17,228 L-17,229 L-16,229 L-16,228 Z M33,230 L33,232 L34,232 L34,230 Z M2,231 L2,232 L3,232 L3,231 Z M34,232 L34,233 L35,233 L35,232 Z M19,251 L19,253 L20,253 L20,251 Z M26,3 L27,3 L27,4 L26,4 Z M-4,4 L-3,4 L-3,6 L-4,6 Z M18,4 L19,4 L19,5 L18,5 Z M-24,5 L-23,5 L-23,6 L-24,6 Z M26,5 L27,5 L27,7 L26,7 Z M40,6 L41,6 L41,7 L40,7 Z M-26,7 L-25,7 L-25,31 L-26,31 Z M48,7 L49,7 L49,8 L48,8 Z M-18,8 L-17,8 L-17,9 L-18,9 Z M5,8 L6,8 L6,9 L5,9 Z M-5,9 L-4,9 L-4,10 L-5,10 Z M16,9 L17,9 L17,10 L16,10 Z M39,9 L40,9 L40,10 L39,10 Z M48,9 L49,9 L49,10 L48,10 Z M70,9 L71,9 L71,10 L70,10 Z M-17,10 L-16,10 L-16,11 L-17,11 Z M27,10 L28,10 L28,13 L27,13 Z M-44,11 L-43,11 L-43,12 L-44,12 Z M-5,11 L-4,11 L-4,13 L-5,13 Z M6,11 L7,11 L7,12 L6,12 Z M38,11 L39,11 L39,12 L38,12 Z M7,13 L8,13 L8,14 L7,14 Z M37,13 L38,13 L38,14 L37,14 Z M15,14 L16,14 L16,15 L15,15 Z M-14,15 L-13,15 L-13,16 L-14,16 Z M28,15 L29,15 L29,19 L28,19 Z M8,16 L9,16 L9,17 L8,17 Z M-13,17 L-12,17 L-12,19 L-13,19 Z M-6,17 L-5,17 L-5,20 L-6,20 Z M87,17 L88,17 L88,18 L87,18 Z M49,18 L50,18 L50,22 L49,22 Z M-37,19 L-36,19 L-36,20 L-37,20 Z M34,19 L35,19 L35,21 L34,21 Z M92,19 L93,19 L93,20 L92,20 Z M-36,20 L-35,20 L-35,21 L-36,21 Z M9,20 L10,20 L10,21 L9,21 Z M-65,21 L-64,21 L-64,22 L-65,22 Z M-35,21 L-34,21 L-34,22 L-35,22 Z M33,21 L34,21 L34,22 L33,22 Z M57,21 L58,21 L58,22 L57,22 Z M-62,22 L-61,22 L-61,23 L-62,23 Z M-34,22 L-33,22 L-33,23 L-34,23 Z M29,22 L30,22 L30,24 L29,24 Z M56,22 L57,22 L57,23 L56,23 Z M70,22 L71,22 L71,26 L70,26 Z M92,22 L93,22 L93,24 L92,24 Z M-68,23 L-67,23 L-67,27 L-68,27 Z M32,23 L33,23 L33,25 L32,25 Z M49,23 L50,23 L50,24 L49,24 Z M12,24 L13,24 L13,25 L12,25 Z M80,24 L81,24 L81,25 L80,25 Z M-59,25 L-58,25 L-58,26 L-59,26 Z M-9,25 L-8,25 L-8,26 L-9,26 Z M54,25 L55,25 L55,26 L54,26 Z M31,26 L32,26 L32,27 L31,27 Z M91,26 L92,26 L92,27 L91,27 Z M-57,27 L-56,27 L-56,28 L-57,28 Z M-31,27 L-30,27 L-30,28 L-31,28 Z M11,27 L12,27 L12,28 L11,28 Z M30,27 L31,27 L31,29 L30,29 Z M53,27 L54,27 L54,28 L53,28 Z M78,27 L79,27 L79,28 L78,28 Z M-46,28 L-45,28 L-45,29 L-46,29 Z M-30,28 L-29,28 L-29,30 L-30,30 Z M52,28 L53,28 L53,29 L52,29 Z M70,28 L71,28 L71,30 L70,30 Z M77,28 L78,28 L78,29 L77,29 Z M-55,29 L-54,29 L-54,30 L-55,30 Z M110,29 L111,29 L111,30 L110,30 Z M-54,30 L-53,30 L-53,31 L-54,31 Z M-46,30 L-45,30 L-45,31 L-46,31 Z M113,30 L114,30 L114,31 L113,31 Z M-45,31 L-44,31 L-44,35 L-45,35 Z M70,31 L71,31 L71,32 L70,32 Z M90,31 L91,31 L91,32 L90,32 Z M-51,32 L-50,32 L-50,33 L-51,33 Z M-27,32 L-26,32 L-26,33 L-27,33 Z M113,32 L114,32 L114,34 L113,34 Z M-86,33 L-84,33 L-84,34 L-86,34 Z M-66,33 L-65,33 L-65,34 L-66,34 Z M20,33 L21,33 L21,36 L20,36 Z M-26,34 L-25,34 L-25,35 L-26,35 Z M101,34 L102,34 L102,35 L101,35 Z M-89,36 L-88,36 L-88,38 L-89,38 Z M-65,36 L-64,36 L-64,37 L-65,37 Z M3,36 L4,36 L4,37 L3,37 Z M19,36 L20,36 L20,37 L19,37 Z M21,36 L22,36 L22,37 L21,37 Z M88,37 L89,37 L89,38 L88,38 Z M-44,38 L-43,38 L-43,40 L-45,40 L-45,39 L-44,39 Z M-15,38 L-14,38 L-14,39 L-15,39 Z M2,38 L3,38 L3,40 L2,40 Z M4,38 L5,38 L5,41 L4,41 Z M58,38 L59,38 L59,43 L58,43 Z M-14,39 L-13,39 L-13,40 L-14,40 Z M18,39 L19,39 L19,40 L18,40 Z M21,39 L22,39 L22,40 L21,40 Z M88,39 L89,39 L89,40 L88,40 Z M111,39 L112,39 L112,40 L111,40 Z M-88,40 L-87,40 L-87,41 L-88,41 Z M-74,40 L-73,40 L-73,41 L-74,41 Z M94,40 L95,40 L95,41 L94,41 Z M110,40 L111,40 L111,41 L110,41 Z M-73,41 L-72,41 L-72,42 L-73,42 Z M-13,41 L-12,41 L-12,42 L-13,42 Z M92,41 L94,41 L94,42 L92,42 Z M-63,42 L-62,42 L-62,43 L-63,43 Z M5,42 L6,42 L6,44 L5,44 Z M91,42 L92,42 L92,43 L91,43 Z M-70,43 L-69,43 L-69,44 L-70,44 Z M35,43 L36,43 L36,44 L35,44 Z M90,43 L91,43 L91,44 L90,44 Z M109,43 L110,43 L110,44 L109,44 Z M-69,44 L-68,44 L-68,45 L-69,45 Z M-32,44 L-31,44 L-31,45 L-32,45 Z M17,44 L18,44 L18,45 L17,45 Z M34,44 L35,44 L35,45 L34,45 Z M87,44 L88,44 L88,45 L87,45 Z M-31,45 L-30,45 L-30,46 L-31,46 Z M1,45 L2,45 L2,46 L1,46 Z M23,45 L24,45 L24,47 L23,47 Z M58,45 L59,45 L59,46 L58,46 Z M75,45 L76,45 L76,47 L75,47 L75,49 L74,49 L74,46 L75,46 Z M-85,46 L-84,46 L-84,47 L-85,47 Z M-66,46 L-65,46 L-65,47 L-66,47 Z M-62,46 L-61,46 L-61,47 L-62,47 Z M-30,46 L-29,46 L-29,47 L-30,47 Z M-10,46 L-9,46 L-9,47 L-10,47 Z M16,47 L17,47 L17,48 L16,48 Z M33,47 L34,47 L34,48 L33,48 Z M107,47 L108,47 L108,48 L107,48 Z M-62,48 L-60,48 L-60,49 L-62,49 Z M-32,48 L-31,48 L-31,49 L-32,49 Z M-28,49 L-27,49 L-27,50 L-28,50 Z M50,49 L51,49 L51,50 L50,50 Z M57,49 L58,49 L58,50 L57,50 Z M72,49 L73,49 L73,50 L72,50 Z M106,49 L107,49 L107,51 L106,51 Z M117,49 L119,49 L119,50 L117,50 Z M-104,50 L-103,50 L-103,51 L-104,51 Z M-83,50 L-82,50 L-82,51 L-83,51 Z M-49,50 L-48,50 L-48,52 L-49,52 Z M-105,51 L-104,51 L-104,53 L-105,53 Z M-96,51 L-94,51 L-94,52 L-96,52 Z M-16,51 L-15,51 L-15,52 L-16,52 Z M113,51 L115,51 L115,52 L113,52 Z M-81,52 L-80,52 L-80,53 L-81,53 Z M105,52 L106,52 L106,53 L105,53 Z M-46,53 L-45,53 L-45,55 L-46,55 Z M57,53 L58,53 L58,54 L57,54 Z M110,53 L111,53 L111,54 L110,54 Z M-48,54 L-47,54 L-47,55 L-48,55 Z M92,54 L93,54 L93,55 L92,55 Z M-105,55 L-104,55 L-104,56 L-105,56 Z M-87,55 L-86,55 L-86,56 L-87,56 Z M91,55 L92,55 L92,56 L91,56 Z M-85,56 L-84,56 L-84,57 L-85,57 Z M-43,56 L-42,56 L-42,57 L-43,57 Z M72,56 L73,56 L73,59 L72,59 Z M104,56 L105,56 L105,57 L104,57 Z M-79,57 L-78,57 L-78,59 L-79,59 Z M-42,57 L-41,57 L-41,58 L-42,58 Z M-47,58 L-46,58 L-46,59 L-47,59 Z M90,58 L91,58 L91,59 L90,59 Z M-78,59 L-77,59 L-77,60 L-78,60 Z M-77,60 L-76,60 L-76,61 L-77,61 Z M-65,60 L-64,60 L-64,61 L-65,61 Z M89,60 L90,60 L90,61 L89,61 Z M-63,61 L-62,61 L-62,62 L-63,62 Z M88,61 L89,61 L89,64 L88,64 Z M-63,63 L-62,63 L-62,64 L-63,64 Z M-99,64 L-98,64 L-98,65 L-99,65 Z M87,64 L88,64 L88,65 L87,65 Z M-97,65 L-96,65 L-96,67 L-97,67 Z M140,65 L142,65 L142,66 L140,66 Z M143,65 L144,65 L144,66 L143,66 Z M-55,66 L-54,66 L-54,67 L-55,67 Z M107,66 L108,66 L108,67 L107,67 Z M136,66 L138,66 L138,67 L136,67 Z M-61,67 L-60,67 L-60,68 L-61,68 Z M132,67 L133,67 L133,68 L132,68 Z M-117,68 L-115,68 L-115,69 L-117,69 Z M-114,68 L-113,68 L-113,69 L-114,69 Z M-95,68 L-94,68 L-94,69 L-95,69 Z M103,68 L104,68 L104,69 L103,69 Z M128,68 L129,68 L129,69 L128,69 Z M-109,69 L-107,69 L-107,70 L-109,70 Z M146,69 L147,69 L147,70 L146,70 Z M-119,70 L-118,70 L-118,71 L-119,71 Z M-104,70 L-103,70 L-103,71 L-104,71 Z M105,70 L106,70 L106,71 L105,71 Z M120,70 L121,70 L121,71 L120,71 Z M-102,71 L-99,71 L-99,72 L-102,72 Z M-79,71 L-77,71 L-77,73 L-78,73 L-78,72 L-79,72 Z M104,71 L105,71 L105,72 L104,72 Z M117,71 L118,71 L118,72 L117,72 Z M-99,72 L-98,72 L-98,73 L-99,73 Z M-96,72 L-95,72 L-95,73 L-96,73 Z M-76,72 L-75,72 L-75,73 L-76,73 Z M95,72 L96,72 L96,73 L95,73 Z M103,72 L104,72 L104,73 L103,73 Z M-77,73 L-76,73 L-76,74 L-77,74 Z M-76,75 L-75,75 L-75,76 L-76,76 Z M-69,75 L-68,75 L-68,76 L-69,76 Z M-115,78 L-114,78 L-114,79 L-115,79 Z M99,79 L100,79 L100,81 L99,81 Z M116,82 L117,82 L117,83 L116,83 Z M112,83 L114,83 L114,84 L112,84 Z M115,86 L116,86 L116,87 L115,87 Z M-83,87 L-82,87 L-82,88 L-83,88 Z M-81,87 L-80,87 L-80,88 L-81,88 Z M113,87 L114,87 L114,88 L113,88 Z M129,87 L131,87 L131,88 L129,88 Z M-104,88 L-102,88 L-102,89 L-104,89 Z M112,88 L113,88 L113,89 L112,89 Z M154,88 L155,88 L155,89 L154,89 Z M-119,89 L-118,89 L-118,90 L-119,90 Z M-117,89 L-116,89 L-116,90 L-117,90 Z M-115,89 L-111,89 L-111,90 L-115,90 Z M-110,89 L-109,89 L-109,90 L-110,90 Z M-108,89 L-105,89 L-105,90 L-108,90 Z M111,89 L112,89 L112,90 L111,90 Z M-129,90 L-128,90 L-128,93 L-129,93 Z M157,90 L158,90 L158,92 L157,92 Z M-84,91 L-83,91 L-83,92 L-84,92 Z M109,91 L111,91 L111,92 L109,92 Z M-83,92 L-82,92 L-82,93 L-83,93 Z M-82,93 L-81,93 L-81,94 L-82,94 Z M157,93 L158,93 L158,94 L157,94 Z M-129,94 L-128,94 L-128,95 L-129,95 Z M155,95 L156,95 L156,96 L155,96 Z M153,96 L154,96 L154,97 L153,97 Z M126,99 L128,99 L128,100 L126,100 Z M148,100 L149,100 L149,101 L148,101 Z M-97,101 L-94,101 L-94,102 L-97,102 Z M123,101 L125,101 L125,102 L123,102 Z M-97,103 L-96,103 L-96,104 L-97,104 Z M120,103 L121,103 L121,104 L120,104 Z M-115,105 L-114,105 L-114,106 L-115,106 Z M-113,105 L-112,105 L-112,106 L-113,106 Z M115,106 L116,106 L116,107 L115,107 Z M136,106 L137,106 L137,108 L135,108 L135,107 L136,107 Z M-109,108 L-108,108 L-108,109 L-109,109 Z M137,108 L140,108 L140,109 L137,109 Z M-108,109 L-107,109 L-107,110 L-108,110 Z M144,109 L146,109 L146,110 L144,110 Z M-114,110 L-113,110 L-113,111 L-114,111 Z M150,110 L151,110 L151,111 L150,111 Z M-120,111 L-118,111 L-118,112 L-120,112 Z M-122,112 L-121,112 L-121,113 L-122,113 Z M160,112 L161,112 L161,113 L160,113 Z M-130,113 L-129,113 L-129,114 L-130,114 Z M-132,114 L-131,114 L-131,115 L-132,115 Z M163,115 L164,115 L164,116 L163,116 Z M124,116 L125,116 L125,117 L124,117 Z M-94,117 L-93,117 L-93,118 L-94,118 Z M-136,118 L-135,118 L-135,120 L-136,120 Z M131,118 L133,118 L133,119 L131,119 Z M161,119 L162,119 L162,120 L161,120 Z M-106,120 L-104,120 L-104,121 L-106,121 Z M125,120 L126,120 L126,121 L125,121 Z M159,120 L160,120 L160,121 L159,121 Z M122,121 L124,121 L124,122 L122,122 Z M155,121 L156,121 L156,122 L155,122 Z M-101,122 L-99,122 L-99,123 L-101,123 Z M153,122 L154,122 L154,123 L153,123 Z M-97,123 L-95,123 L-95,124 L-97,124 Z M151,123 L152,123 L152,124 L151,124 Z M-127,124 L-126,124 L-126,125 L-127,125 Z M147,124 L148,124 L148,125 L147,125 Z M144,125 L146,125 L146,126 L144,126 Z M-119,127 L-117,127 L-117,128 L-119,128 Z M138,127 L139,127 L139,128 L138,128 Z M-116,128 L-114,128 L-114,129 L-116,129 Z M-114,129 L-111,129 L-111,130 L-112,130 L-112,131 L-114,131 L-114,132 L-115,132 L-115,130 L-114,130 Z M143,129 L144,129 L144,130 L143,130 Z M145,130 L146,130 L146,131 L145,131 Z M-119,132 L-116,132 L-116,133 L-119,133 Z M151,132 L152,132 L152,133 L151,133 Z M-121,133 L-120,133 L-120,134 L-121,134 Z M122,133 L123,133 L123,134 L122,134 Z M153,133 L154,133 L154,134 L153,134 Z M156,134 L157,134 L157,135 L156,135 Z M-95,135 L-94,135 L-94,136 L-95,136 Z M159,135 L160,135 L160,136 L159,136 Z M-98,136 L-97,136 L-97,137 L-98,137 Z M-104,138 L-103,138 L-103,140 L-104,140 Z M-102,138 L-101,138 L-101,139 L-102,139 Z M-134,139 L-133,139 L-133,140 L-134,140 Z M-100,139 L-97,139 L-97,140 L-100,140 Z M-93,140 L-92,140 L-92,141 L-93,141 Z M162,142 L163,142 L163,143 L162,143 Z M114,143 L115,143 L115,144 L114,144 Z M161,143 L162,143 L162,144 L161,144 Z M158,144 L159,144 L159,145 L158,145 Z M151,145 L152,145 L152,146 L151,146 Z M144,146 L148,146 L148,147 L144,147 Z M-126,147 L-125,147 L-125,148 L-126,148 Z M138,147 L139,147 L139,148 L138,148 Z M-117,148 L-116,148 L-116,149 L-117,149 Z M-115,148 L-114,148 L-114,149 L-115,149 Z M137,148 L138,148 L138,149 L137,149 Z M-113,149 L-110,149 L-110,150 L-113,150 Z M138,149 L139,149 L139,150 L138,150 Z M-110,150 L-108,150 L-108,151 L-110,151 Z M-111,151 L-110,151 L-110,152 L-111,152 Z M-92,151 L-91,151 L-91,152 L-92,152 Z M122,151 L123,151 L123,152 L122,152 Z M142,151 L143,151 L143,152 L142,152 Z M144,152 L145,152 L145,153 L144,153 Z M-114,153 L-112,153 L-112,154 L-114,154 Z M145,153 L147,153 L147,154 L145,154 Z M-116,154 L-114,154 L-114,155 L-116,155 Z M-96,154 L-95,154 L-95,155 L-96,155 Z M147,154 L148,154 L148,155 L147,155 Z M-118,155 L-116,155 L-116,156 L-118,156 Z M-98,155 L-97,155 L-97,156 L-98,156 Z M124,155 L125,155 L125,156 L124,156 Z M126,155 L127,155 L127,156 L126,156 Z M-89,156 L-87,156 L-87,157 L-89,157 Z M-120,157 L-119,157 L-119,158 L-120,158 Z M152,157 L153,157 L153,158 L152,158 Z M-124,160 L-123,160 L-123,161 L-124,161 Z M-128,163 L-127,163 L-127,164 L-128,164 Z M-129,164 L-128,164 L-128,165 L-129,165 Z M112,164 L113,164 L113,165 L112,165 Z M-130,166 L-129,166 L-129,168 L-130,168 Z M-84,166 L-83,166 L-83,167 L-84,167 Z M130,166 L132,166 L132,167 L130,167 Z M134,166 L135,166 L135,167 L134,167 Z M136,166 L137,166 L137,167 L136,167 Z M-87,168 L-86,168 L-86,169 L-87,169 Z M131,168 L132,168 L132,169 L131,169 Z M-111,169 L-108,169 L-108,170 L-111,170 Z M109,170 L110,170 L110,171 L109,171 Z M118,170 L119,170 L119,171 L118,171 Z M133,170 L134,170 L134,171 L133,171 Z M-82,171 L-81,171 L-81,172 L-82,172 Z M114,171 L116,171 L116,172 L114,172 Z M134,171 L136,171 L136,173 L135,173 L135,172 L134,172 Z M-106,173 L-105,173 L-105,174 L-106,174 Z M-90,173 L-89,173 L-89,174 L-90,174 Z M-88,173 L-86,173 L-86,174 L-88,174 Z M101,173 L102,173 L102,174 L101,174 Z M-107,174 L-106,174 L-106,175 L-107,175 Z M-108,175 L-107,175 L-107,176 L-108,176 Z M139,175 L140,175 L140,176 L139,176 Z M-109,176 L-108,176 L-108,177 L-109,177 Z M101,176 L102,176 L102,177 L101,177 Z M-111,178 L-110,178 L-110,179 L-111,179 Z M143,179 L144,179 L144,180 L143,180 Z M-113,180 L-112,180 L-112,181 L-113,181 Z M104,180 L105,180 L105,181 L104,181 Z M-114,181 L-113,181 L-113,182 L-114,182 Z M-76,182 L-75,182 L-75,183 L-76,183 Z M-71,183 L-69,183 L-69,184 L-71,184 Z M147,183 L148,183 L148,184 L147,184 Z M-78,184 L-77,184 L-77,185 L-78,185 Z M-73,184 L-71,184 L-71,185 L-73,185 Z M-63,184 L-62,184 L-62,185 L-63,185 Z M119,184 L122,184 L122,185 L121,185 L121,186 L120,186 L120,185 L119,185 Z M-118,185 L-117,185 L-117,186 L-118,186 Z M-91,185 L-90,185 L-90,186 L-91,186 Z M123,185 L125,185 L125,186 L123,186 Z M-119,186 L-118,186 L-118,187 L-119,187 Z M-94,186 L-91,186 L-91,188 L-92,188 L-92,187 L-94,187 Z M106,186 L108,186 L108,187 L106,187 Z M128,186 L130,186 L130,187 L128,187 Z M-98,187 L-96,187 L-96,188 L-98,188 Z M-78,187 L-77,187 L-77,188 L-78,188 Z M89,187 L90,187 L90,188 L89,188 Z M108,187 L109,187 L109,188 L108,188 Z M121,187 L122,187 L122,188 L121,188 Z M133,187 L135,187 L135,188 L133,188 Z M-100,188 L-98,188 L-98,189 L-100,189 Z M-80,188 L-79,188 L-79,189 L-80,189 Z M-104,189 L-103,189 L-103,190 L-104,190 Z M123,189 L124,189 L124,190 L123,190 Z M-119,190 L-118,190 L-118,191 L-119,191 Z M-108,190 L-107,190 L-107,191 L-108,191 Z M-94,190 L-93,190 L-93,191 L-94,191 Z M-111,191 L-109,191 L-109,192 L-111,192 Z M-63,191 L-62,191 L-62,193 L-63,193 Z M124,191 L125,191 L125,192 L124,192 Z M-56,192 L-55,192 L-55,193 L-56,193 Z M125,192 L126,192 L126,193 L125,193 Z M-96,193 L-95,193 L-95,194 L-96,194 Z M-57,193 L-56,193 L-56,194 L-57,194 Z M126,193 L127,193 L127,194 L126,194 Z M-97,194 L-96,194 L-96,195 L-97,195 Z M-64,194 L-63,194 L-63,195 L-64,195 Z M-59,194 L-58,194 L-58,195 L-59,195 Z M-60,195 L-59,195 L-59,196 L-60,196 Z M92,195 L93,195 L93,196 L92,196 Z M127,195 L128,195 L128,196 L127,196 Z M-98,196 L-97,196 L-97,197 L-98,197 Z M-61,196 L-60,196 L-60,197 L-61,197 Z M-99,197 L-98,197 L-98,198 L-99,198 Z M-65,197 L-64,197 L-64,198 L-65,198 Z M91,197 L92,197 L92,198 L91,198 Z M93,197 L94,197 L94,198 L93,198 Z M-100,198 L-99,198 L-99,199 L-100,199 Z M-63,198 L-62,198 L-62,199 L-63,199 Z M92,198 L93,198 L93,199 L92,199 Z M94,198 L95,198 L95,199 L94,199 Z M-64,199 L-63,199 L-63,200 L-64,200 Z M93,199 L94,199 L94,200 L93,200 Z M106,199 L107,199 L107,200 L106,200 Z M130,199 L131,199 L131,200 L130,200 Z M-78,200 L-77,200 L-77,201 L-78,201 Z M-42,200 L-41,200 L-41,201 L-42,201 Z M76,200 L77,200 L77,203 L76,203 Z M94,200 L96,200 L96,201 L94,201 Z M109,200 L111,200 L111,201 L109,201 Z M-101,201 L-100,201 L-100,202 L-101,202 Z M-81,201 L-80,201 L-80,202 L-81,202 Z M-33,201 L-32,201 L-32,204 L-33,204 Z M69,201 L70,201 L70,202 L69,202 Z M-79,202 L-78,202 L-78,203 L-79,203 Z M-80,203 L-79,203 L-79,206 L-80,206 Z M-50,203 L-49,203 L-49,206 L-50,206 Z M-44,203 L-43,203 L-43,204 L-44,204 Z M-19,203 L-18,203 L-18,204 L-19,204 Z M71,203 L72,203 L72,204 L71,204 Z M-86,204 L-85,204 L-85,205 L-86,205 Z M-45,204 L-44,204 L-44,205 L-45,205 Z M72,204 L73,204 L73,205 L72,205 Z M118,204 L119,204 L119,205 L118,205 Z M133,204 L134,204 L134,205 L133,205 Z M-88,205 L-87,205 L-87,206 L-88,206 Z M-46,205 L-45,205 L-45,206 L-46,206 Z M-17,205 L-16,205 L-16,206 L-17,206 Z M73,205 L74,205 L74,206 L73,206 Z M109,205 L110,205 L110,206 L109,206 Z M-47,206 L-46,206 L-46,207 L-47,207 Z M-26,206 L-25,206 L-25,207 L-26,207 Z M-5,206 L-4,206 L-4,207 L-5,207 Z M-3,206 L-2,206 L-2,207 L-3,207 Z M51,206 L52,206 L52,207 L51,207 Z M60,206 L61,206 L61,213 L60,213 Z M-105,207 L-104,207 L-104,210 L-105,210 Z M-81,207 L-80,207 L-80,208 L-81,208 Z M-17,207 L-16,207 L-16,208 L-17,208 Z M77,207 L78,207 L78,208 L77,208 Z M124,207 L125,207 L125,208 L124,208 Z M-93,208 L-92,208 L-92,209 L-93,209 Z M-82,208 L-81,208 L-81,210 L-82,210 Z M-49,208 L-48,208 L-48,209 L-49,209 Z M-27,208 L-26,208 L-26,209 L-27,209 Z M-1,208 L0,208 L0,209 L-1,209 Z M126,208 L127,208 L127,209 L126,209 Z M-94,209 L-93,209 L-93,210 L-94,210 Z M-28,209 L-27,209 L-27,210 L-28,210 Z M53,209 L54,209 L54,210 L53,210 Z M111,209 L112,209 L112,210 L111,210 Z M128,209 L129,209 L129,210 L128,210 Z M-33,210 L-32,210 L-32,212 L-33,212 Z M-29,210 L-28,210 L-28,211 L-29,211 Z M-10,210 L-9,210 L-9,211 L-10,211 Z M8,210 L9,210 L9,211 L8,211 Z M112,210 L113,210 L113,211 L112,211 Z M-100,211 L-98,211 L-98,212 L-100,212 Z M-83,211 L-82,211 L-82,213 L-83,213 Z M-62,211 L-61,211 L-61,212 L-62,212 Z M0,211 L1,211 L1,212 L0,212 Z M17,211 L18,211 L18,212 L17,212 Z M79,211 L80,211 L80,212 L79,212 Z M112,212 L113,212 L113,213 L112,213 Z M-62,213 L-61,213 L-61,214 L-62,214 Z M113,213 L114,213 L114,214 L113,214 Z M18,214 L19,214 L19,215 L18,215 Z M24,214 L25,214 L25,216 L24,216 Z M91,214 L92,214 L92,215 L91,215 Z M95,214 L96,214 L96,215 L95,215 Z M-63,215 L-62,215 L-62,217 L-63,217 Z M-12,215 L-11,215 L-11,216 L-12,216 Z M6,215 L7,215 L7,216 L6,216 Z M42,215 L43,215 L43,216 L42,216 Z M114,215 L115,215 L115,216 L114,216 Z M-85,216 L-84,216 L-84,217 L-85,217 Z M-68,216 L-67,216 L-67,217 L-68,217 Z M-33,216 L-32,216 L-32,217 L-33,217 Z M-16,216 L-15,216 L-15,217 L-16,217 Z M37,216 L38,216 L38,217 L37,217 Z M91,216 L92,216 L92,217 L91,217 Z M-13,217 L-12,217 L-12,218 L-13,218 Z M42,217 L43,217 L43,218 L42,218 Z M19,218 L20,218 L20,220 L19,220 Z M92,218 L93,218 L93,220 L92,220 Z M-14,219 L-13,219 L-13,220 L-14,220 Z M72,219 L73,219 L73,222 L72,222 Z M-44,220 L-43,220 L-43,223 L-44,223 Z M104,220 L105,220 L105,221 L104,221 Z M4,221 L5,221 L5,222 L4,222 Z M93,221 L94,221 L94,224 L93,224 Z M-76,222 L-75,222 L-75,223 L-76,223 Z M42,222 L43,222 L43,223 L42,223 Z M-65,223 L-64,223 L-64,224 L-65,224 Z M22,223 L23,223 L23,224 L22,224 Z M40,223 L41,223 L41,224 L40,224 Z M76,223 L77,223 L77,225 L76,225 Z M-49,224 L-48,224 L-48,226 L-49,226 Z M-45,224 L-44,224 L-44,229 L-45,229 Z M21,224 L22,224 L22,225 L21,225 Z M110,224 L111,224 L111,225 L110,225 Z M116,224 L117,224 L117,225 L116,225 Z M94,225 L95,225 L95,226 L94,226 Z M-87,226 L-86,226 L-86,227 L-87,227 Z M-81,226 L-80,226 L-80,227 L-81,227 Z M41,226 L42,226 L42,227 L41,227 Z M52,226 L53,226 L53,227 L52,227 Z M72,226 L73,226 L73,227 L72,227 Z M79,226 L80,226 L80,227 L79,227 Z M-83,227 L-82,227 L-82,228 L-83,228 Z M-66,227 L-65,227 L-65,229 L-66,229 Z M51,227 L52,227 L52,228 L51,228 Z M-85,228 L-84,228 L-84,229 L-85,229 Z M-28,228 L-27,228 L-27,230 L-28,230 Z M53,228 L54,228 L54,229 L53,229 Z M51,229 L52,229 L52,230 L51,230 Z M55,229 L56,229 L56,230 L55,230 Z M95,229 L96,229 L96,231 L95,231 Z M-46,230 L-45,230 L-45,234 L-46,234 Z M73,230 L74,230 L74,231 L73,231 Z M83,230 L84,230 L84,231 L83,231 Z M12,231 L13,231 L13,233 L12,233 Z M-25,232 L-24,232 L-24,234 L-25,234 Z M56,232 L57,232 L57,233 L56,233 Z M-31,233 L-30,233 L-30,234 L-31,234 Z M31,233 L32,233 L32,236 L31,236 Z M73,233 L74,233 L74,235 L73,235 Z M13,234 L14,234 L14,237 L13,237 Z M51,234 L52,234 L52,235 L51,235 Z M-10,235 L-9,235 L-9,236 L-10,236 Z M58,235 L59,235 L59,236 L58,236 Z M-33,236 L-32,236 L-32,237 L-33,237 Z M-6,236 L-5,236 L-5,237 L-6,237 Z M34,236 L35,236 L35,237 L34,237 Z M51,236 L52,236 L52,239 L51,239 Z M73,236 L74,236 L74,237 L73,237 Z M88,236 L89,236 L89,237 L88,237 Z M-34,237 L-33,237 L-33,238 L-34,238 Z M-11,237 L-10,237 L-10,238 L-11,238 Z M14,237 L15,237 L15,239 L14,239 Z M30,237 L31,237 L31,238 L30,238 Z M-6,238 L-5,238 L-5,240 L-6,240 Z M10,238 L11,238 L11,239 L10,239 Z M60,238 L61,238 L61,239 L60,239 Z M-47,239 L-46,239 L-46,240 L-47,240 Z M-35,239 L-34,239 L-34,240 L-35,240 Z M-12,239 L-11,239 L-11,241 L-12,241 Z M30,239 L31,239 L31,241 L30,241 Z M9,240 L10,240 L10,241 L9,241 Z M15,240 L16,240 L16,243 L15,243 Z M36,240 L37,240 L37,241 L36,241 Z M62,240 L63,240 L63,242 L62,242 Z M63,242 L64,242 L64,243 L63,243 Z M8,244 L9,244 L9,245 L8,245 Z M38,244 L39,244 L39,245 L38,245 Z M64,244 L65,244 L65,245 L64,245 Z M-39,245 L-38,245 L-38,246 L-39,246 Z M66,246 L67,246 L67,247 L66,247 Z M-4,249 L-3,249 L-3,250 L-4,250 Z M28,249 L29,249 L29,252 L28,252 Z M72,249 L73,249 L73,250 L72,250 Z M6,251 L7,251 L7,252 L6,252 Z M50,251 L51,251 L51,253 L50,253 Z M5,255 L6,255 L6,256 L5,256 Z M4,256 L5,256 L5,257 L4,257 Z M1,258 L2,258 L2,259 L1,259 Z M24,258 L25,258 L25,259 L24,259 Z " transform="translate(143,21)" style="fill: #69db7c;"/></svg>