<?xml version="1.0" encoding="UTF-8"?>
<!-- Generator: visioncortex VTracer -->
<svg id="svg" version="1.1" xmlns="http://www.w3.org/2000/svg" style="display: block;" viewBox="0 0 293 296"><path d="M0 0 C3.47279827 1.68892923 4.77356482 2.16610509 8.50390625 0.9921875 C10.56065459 -0.09528863 12.59127842 -1.23351713 14.59375 -2.41796875 C26.06678019 -8.91010008 40.43678089 -6.31028976 52.5 -3.0625 C64.41877306 0.47215046 74.0202758 8.11154156 81.5 17.9375 C81.95503906 18.82179688 82.41007813 19.70609375 82.87890625 20.6171875 C84.31252407 23.13633786 84.31252407 23.13633786 86.99609375 23.87109375 C88.45208984 24.12052734 88.45208984 24.12052734 89.9375 24.375 C104.18945663 27.51351753 115.70166828 35.69275127 124.0625 47.625 C124.91058341 49.04179816 125.72690924 50.47842729 126.5 51.9375 C126.82484375 52.5459375 127.1496875 53.154375 127.484375 53.78125 C132.3457102 64.60460008 130.7511139 76.9307168 127.5 87.9375 C126.76507264 89.73540189 126.01575751 91.52751124 125.25 93.3125 C123.41401576 97.98153857 123.46339228 101.95973726 123.9375 106.875 C125.08512294 118.77286211 121.31717409 128.19881943 116.5 138.9375 C115.84 138.9375 115.18 138.9375 114.5 138.9375 C114.5 139.9275 114.5 140.9175 114.5 141.9375 C113.84 141.9375 113.18 141.9375 112.5 141.9375 C112.2525 142.50984375 112.005 143.0821875 111.75 143.671875 C110.30683801 146.28760611 108.61783778 148.08523456 106.5 150.1875 C105.448125 151.24710937 105.448125 151.24710937 104.375 152.328125 C102.5 153.9375 102.5 153.9375 100.5 153.9375 C100.5 154.5975 100.5 155.2575 100.5 155.9375 C97.83753623 157.23847661 95.17055529 158.52832283 92.5 159.8125 C91.75621094 160.17730469 91.01242188 160.54210937 90.24609375 160.91796875 C84.10604765 163.85451254 78.17776635 166.198859 71.25 165.875 C65.83638229 166.36714706 62.83347463 169.95915159 59.15112305 173.56835938 C47.30000947 185.08524429 33.14726403 189.56779024 16.89160156 189.41259766 C6.75235549 189.06303508 -1.42699568 186.51486287 -9.8203125 180.85546875 C-11.5923036 179.71270303 -11.5923036 179.71270303 -14.3125 179.9375 C-15.364375 180.2675 -16.41625 180.5975 -17.5 180.9375 C-19.31073741 181.44384602 -21.12343596 181.94320462 -22.9375 182.4375 C-23.89269531 182.70175781 -24.84789063 182.96601563 -25.83203125 183.23828125 C-40.11874191 186.98252899 -54.71284231 184.7057994 -67.6796875 177.73828125 C-74.44969987 173.41560022 -84.74833194 165.84282407 -87.15234375 157.73828125 C-87.26707031 157.14402344 -87.38179687 156.54976562 -87.5 155.9375 C-88.75103516 155.79054687 -88.75103516 155.79054687 -90.02734375 155.640625 C-101.10117586 154.16918797 -108.97544976 151.15709921 -117.5 143.9375 C-118.15871094 143.40898437 -118.81742188 142.88046875 -119.49609375 142.3359375 C-127.51341409 135.24068714 -134.00035026 123.21108964 -134.73828125 112.46875 C-134.999706 102.82241658 -134.01399453 94.46688174 -129.34375 85.7890625 C-128.2581835 83.40684713 -128.75174401 81.76145166 -129.1953125 79.24609375 C-130.99373717 65.61956839 -128.7081153 53.99332877 -120.5 42.9375 C-111.80610938 32.75242425 -101.00190562 24.25439505 -87.5 21.9375 C-85.27108171 21.8841766 -83.04184688 21.843039 -80.8125 21.8125 C-76.16470978 21.56738251 -76.16470978 21.56738251 -72.36328125 19.125 C-70.61238549 16.79571844 -69.05644214 14.39987129 -67.5 11.9375 C-52.05483863 -6.96950789 -20.84443214 -11.74922212 0 0 Z M-51.5 16.9375 C-52.551875 17.659375 -53.60375 18.38125 -54.6875 19.125 C-58.10855321 22.54605321 -60.4177533 26.27074118 -62.88671875 30.4140625 C-65.60469618 34.66542672 -65.60469618 34.66542672 -67.5 35.9375 C-70.72265625 36.125 -70.72265625 36.125 -74.5625 35.9375 C-86.06361174 35.64814652 -96.05958121 38.87236877 -104.578125 46.89453125 C-111.56690409 54.57337887 -114.53084457 62.89116001 -114.6875 73.25 C-114.53227265 76.3028045 -114.12570873 78.96538355 -113.5 81.9375 C-112.88701327 86.33057154 -113.81373003 88.69795114 -115.9375 92.4375 C-120.08965067 100.25817015 -120.78487364 110.22336302 -118.421875 118.78125 C-114.56180812 127.809881 -107.83632844 134.8235807 -99.05078125 139.10546875 C-94.47177009 140.59908188 -89.66936518 140.86305748 -84.890625 141.25 C-81.01450609 142.03594116 -79.87474608 142.84329781 -77.5 145.9375 C-76.55975217 147.49486824 -75.664736 149.08028016 -74.8125 150.6875 C-69.34783545 160.02010091 -61.36485937 165.66567603 -51.2421875 169.015625 C-38.98842733 172.03429661 -28.06830416 170.00195964 -17.125 164.125 C-13.93208787 162.68058737 -12.8162972 162.98001269 -9.5 163.9375 C-7.39453125 165.20703125 -7.39453125 165.20703125 -5.3125 166.75 C3.88148648 173.13513919 14.16435467 176.39767511 25.33203125 174.44140625 C38.22569024 171.51178155 49.02390307 165.71243625 56.7890625 154.6875 C59.5 151.9375 59.5 151.9375 63.28515625 151.30859375 C64.71110869 151.30992673 66.13716522 151.3330129 67.5625 151.375 C80.62646323 151.14016736 90.27866981 146.27500443 99.5 136.9375 C106.81829126 128.01373351 110.43045094 117.47509163 109.5 105.9375 C109.16935547 104.80441406 109.16935547 104.80441406 108.83203125 103.6484375 C107.20431465 97.98290458 107.48944753 95.1068929 110.25 89.8125 C111.09691406 88.29462891 111.09691406 88.29462891 111.9609375 86.74609375 C116.3235285 78.78491881 116.84744273 69.11336205 114.5625 60.375 C111.656171 52.73903182 104.92123552 45.96565693 97.8671875 41.95703125 C91.46657376 39.20033127 84.54824446 37.58140596 77.74609375 36.14453125 C74.5 34.9375 74.5 34.9375 72.8203125 32.6171875 C72.42585937 31.69164063 72.03140625 30.76609375 71.625 29.8125 C66.23114149 18.91062724 56.95814405 13.59209364 45.8125 9.625 C34.53371781 7.27335108 23.13692656 8.24092321 13.2578125 14.31640625 C11.9654865 15.17226743 10.69158701 16.05748452 9.44921875 16.984375 C6.62360246 18.36603908 4.60942788 18.28735977 1.5 17.9375 C-1.0703125 16.51171875 -1.0703125 16.51171875 -3.625 14.625 C-18.83081623 4.39111279 -36.95827126 6.61499547 -51.5 16.9375 Z M75.5 192.9375 C79.94463328 196.69962405 83.43248182 200.95418444 84.48046875 206.79296875 C84.53190999 212.4412165 82.75040151 217.32984092 79.3125 221.75 C71.31798009 227.96795993 64.36723928 231.32925677 54.125 231.25 C53.36912598 231.24436035 52.61325195 231.2387207 51.83447266 231.23291016 C43.7246698 231.0556563 38.0157353 229.18642627 31.9765625 223.51953125 C27.26027305 218.46636398 26.95462742 213.43257146 27.16015625 206.7734375 C27.84275951 201.07723099 30.95461366 198.2224876 35.1875 194.75 C46.0895046 187.17032162 64.03898596 185.29682398 75.5 192.9375 Z M46.5 203.9375 C46.5 204.5975 46.5 205.2575 46.5 205.9375 C45.51 205.9375 44.52 205.9375 43.5 205.9375 C42.64612895 209.24317489 42.64612895 209.24317489 42.5 212.9375 C44.67053499 215.88322605 46.02182823 216.77810941 49.5 217.9375 C55.458566 218.58309951 60.70723261 218.29132142 65.984375 215.27734375 C67.84837899 213.84056223 67.84837899 213.84056223 68.8125 210.4375 C68.81804678 206.8948463 68.81804678 206.8948463 66.625 204.5625 C59.77344487 200.99969133 53.68003016 201.71821795 46.5 203.9375 Z M98.4375 229.5625 C101.15783421 232.69500606 101.42663672 234.82915614 101.5 238.9375 C100.71227795 242.38378397 99.30018415 243.08136741 96.375 245.1875 C92.21485369 247.38024378 89.15894743 247.46351019 84.5 246.9375 C80.91447119 245.30062815 79.70684945 244.24777417 77.5 240.9375 C77.0625 237.5625 77.0625 237.5625 77.5 233.9375 C83.21302403 226.5921834 90.38371842 225.10721657 98.4375 229.5625 Z " transform="translate(147.5,31.0625)" style="fill: #9775fa;"/></svg>