<?xml version="1.0" encoding="UTF-8"?>
<!-- Generator: visioncortex VTracer -->
<svg id="svg" version="1.1" xmlns="http://www.w3.org/2000/svg" style="display: block;" viewBox="0 0 320 223"><path d="M0 0 C23.55486489 2.04725458 47.03171574 7.91015003 68.25390625 18.4140625 C68.88586914 18.71924805 69.51783203 19.02443359 70.16894531 19.33886719 C80.77624066 24.50076331 91.08542892 30.77002314 99.25390625 39.4140625 C102.71868753 37.89274474 105.22169022 35.8292184 108.06640625 33.3515625 C135.17303399 10.92469785 172.14969259 1.01782326 206.80078125 -0.046875 C210.20515778 0.59280084 211.29720637 1.56054184 213.25390625 4.4140625 C213.54505835 7.15089221 213.63713043 9.45346289 213.50390625 12.1640625 C213.48585938 12.86144531 213.4678125 13.55882812 213.44921875 14.27734375 C213.40229179 15.99017789 213.3305523 17.70230074 213.25390625 19.4140625 C214.56746094 19.35605469 215.88101563 19.29804688 217.234375 19.23828125 C218.97001648 19.19137202 220.70569648 19.14587311 222.44140625 19.1015625 C223.30572266 19.05966797 224.17003906 19.01777344 225.06054688 18.97460938 C225.90166016 18.95849609 226.74277344 18.94238281 227.609375 18.92578125 C228.37918701 18.89959717 229.14899902 18.87341309 229.94213867 18.84643555 C233.48547138 19.71645863 234.94872687 21.64761981 237.25390625 24.4140625 C237.88311195 27.48008633 237.88311195 27.48008633 237.88882446 30.97325134 C237.89662442 31.61849135 237.90442437 32.26373135 237.91246068 32.92852408 C237.93234906 35.08306327 237.9166314 37.2358297 237.90087891 39.39038086 C237.90765661 40.93802418 237.91656061 42.48565942 237.9274292 44.03327942 C237.95021325 48.23180075 237.94138969 52.42970739 237.92553377 56.62823939 C237.91286776 61.02435754 237.92461704 65.42042334 237.9324646 69.81654358 C237.9415601 77.19997599 237.92957695 84.5831583 237.90576172 91.96655273 C237.87856059 100.49809292 237.88735744 109.02903547 237.91489375 117.56056112 C237.93759876 124.88898481 237.94077782 132.21722878 237.9277004 139.54567629 C237.9199122 143.92106802 237.91884658 148.29617906 237.93538284 152.67155266 C237.94984839 156.7864707 237.93976859 160.90062007 237.91091156 165.01545525 C237.90431133 166.52389246 237.90618034 168.03239459 237.91722488 169.54080582 C238.00239527 182.35657912 238.00239527 182.35657912 234.83847046 186.29566956 C230.87886697 189.54108945 228.97731423 189.51112485 223.90234375 189.40625 C222.58838623 189.3870752 221.27442871 189.36790039 219.9206543 189.34814453 C218.87136246 189.33246429 218.87136246 189.33246429 217.8008728 189.31646729 C180.91218365 188.8510243 144.22176377 195.75034293 111.47900391 213.26464844 C105.69428475 216.22621992 100.7453702 217.69101077 94.25390625 216.4140625 C90.43700941 214.90518988 86.97989897 212.91965977 83.44140625 210.8515625 C52.15277293 193.62816026 15.05044479 188.16539237 -20.33056641 189.69995117 C-29.87101679 189.96641795 -29.87101679 189.96641795 -33.50390625 187.03125 C-36.82986506 183.14903328 -36.87565051 181.26259165 -36.8999939 176.20890808 C-36.90437615 175.56552579 -36.9087584 174.92214349 -36.91327345 174.25926477 C-36.92667616 172.09365732 -36.93284357 169.92809058 -36.93896484 167.76245117 C-36.94686461 166.21363643 -36.95513349 164.66482352 -36.96374512 163.11601257 C-36.98997829 158.02137005 -37.00527339 152.92671925 -37.01953125 147.83203125 C-37.02489027 146.07943529 -37.03026778 144.32683939 -37.0356636 142.57424355 C-37.05729365 135.28514792 -37.07603123 127.99605453 -37.087286 120.70693493 C-37.10353097 110.25403974 -37.13672039 99.80151595 -37.19368684 89.34876078 C-37.23236028 82.00263083 -37.25191556 74.65660032 -37.25720656 67.31037122 C-37.26086343 62.92092483 -37.27291989 58.53187443 -37.3053093 54.14253807 C-37.33534477 50.01298923 -37.34171825 45.88407692 -37.32992554 41.75444221 C-37.32970442 40.23910019 -37.33804088 38.72372901 -37.35557938 37.20848846 C-37.37823647 35.13828043 -37.36999657 33.07038745 -37.35409546 31.00016785 C-37.35740561 29.84222812 -37.36071575 28.68428839 -37.36412621 27.49125957 C-36.55687866 23.47195646 -34.87578465 21.96985742 -31.74609375 19.4140625 C-29.52612305 18.84643555 -29.52612305 18.84643555 -27.3203125 18.92578125 C-26.52431641 18.94189453 -25.72832031 18.95800781 -24.90820312 18.97460938 C-24.09158203 19.01650391 -23.27496094 19.05839844 -22.43359375 19.1015625 C-21.1796582 19.13540039 -21.1796582 19.13540039 -19.90039062 19.16992188 C-17.84818226 19.2285564 -15.79690173 19.31823035 -13.74609375 19.4140625 C-13.7203125 18.46144531 -13.69453125 17.50882813 -13.66796875 16.52734375 C-13.61125 15.27308594 -13.55453125 14.01882812 -13.49609375 12.7265625 C-13.4496875 11.48519531 -13.40328125 10.24382813 -13.35546875 8.96484375 C-11.89723248 0.46781317 -7.66518979 -0.3254494 0 0 Z " transform="translate(59.74609375,2.5859375)" style="fill: #060606;"/><path d="M0 0 C0 20.46 0 40.92 0 62 C-4.78767883 63.59589294 -9.13135988 64.58517869 -14.0625 65.3125 C-40.74339075 69.54637684 -66.73621976 77.39496005 -90.16772461 91.06225586 C-92 92 -92 92 -94 92 C-94.28102376 85.09994263 -94.47239119 78.20137973 -94.60424805 71.296875 C-94.65925823 68.95321527 -94.73409718 66.6099277 -94.82983398 64.26757812 C-95.68928091 42.68488957 -95.68928091 42.68488957 -90.31794739 36.18267822 C-88.03661539 33.86887822 -85.6216943 31.91697464 -83 30 C-81.91462387 29.15765646 -80.83071585 28.3134178 -79.74829102 27.46728516 C-58.06651518 11.09190984 -27.15638709 0 0 0 Z " transform="translate(259,18)" style="fill: #F2F2F1;"/><path d="M0 0 C29.5680419 0 64.12819335 14.01770447 86 34 C86.60111099 34.53520264 87.20222198 35.07040527 87.82154846 35.62182617 C91.59282135 39.37358216 93.4521631 42.11476935 93.79467773 47.49804688 C93.7935817 49.57194487 93.75474906 51.64607274 93.68359375 53.71875 C93.67368912 54.81723267 93.66378448 55.91571533 93.65357971 57.04748535 C93.61460267 60.53305345 93.52680565 64.01539466 93.4375 67.5 C93.40236487 69.87235014 93.37042974 72.24474997 93.34179688 74.6171875 C93.26489592 80.41254689 93.14797427 86.20604288 93 92 C89.94976971 90.80878776 86.98570581 89.54907412 84.05859375 88.08203125 C72.63229307 82.44873276 61.13672759 77.86040756 49 74 C48.18370117 73.73590332 47.36740234 73.47180664 46.52636719 73.19970703 C31.13305301 68.28248281 16.08624396 65.87254356 0 63 C0 42.21 0 21.42 0 0 Z " transform="translate(62,18)" style="fill: #F4F3F2;"/><path d="M0 0 C23.55486489 2.04725458 47.03171574 7.91015003 68.25390625 18.4140625 C68.88586914 18.71924805 69.51783203 19.02443359 70.16894531 19.33886719 C80.77624066 24.50076331 91.08542892 30.77002314 99.25390625 39.4140625 C102.71868753 37.89274474 105.22169022 35.8292184 108.06640625 33.3515625 C135.17303399 10.92469785 172.14969259 1.01782326 206.80078125 -0.046875 C210.20515778 0.59280084 211.29720637 1.56054184 213.25390625 4.4140625 C213.54505835 7.15089221 213.63713043 9.45346289 213.50390625 12.1640625 C213.48585938 12.86144531 213.4678125 13.55882812 213.44921875 14.27734375 C213.40229179 15.99017789 213.3305523 17.70230074 213.25390625 19.4140625 C214.56746094 19.35605469 215.88101563 19.29804688 217.234375 19.23828125 C218.97001648 19.19137202 220.70569648 19.14587311 222.44140625 19.1015625 C223.30572266 19.05966797 224.17003906 19.01777344 225.06054688 18.97460938 C225.90166016 18.95849609 226.74277344 18.94238281 227.609375 18.92578125 C228.37918701 18.89959717 229.14899902 18.87341309 229.94213867 18.84643555 C233.48547138 19.71645863 234.94872687 21.64761981 237.25390625 24.4140625 C237.88311195 27.48008633 237.88311195 27.48008633 237.88882446 30.97325134 C237.89662442 31.61849135 237.90442437 32.26373135 237.91246068 32.92852408 C237.93234906 35.08306327 237.9166314 37.2358297 237.90087891 39.39038086 C237.90765661 40.93802418 237.91656061 42.48565942 237.9274292 44.03327942 C237.95021325 48.23180075 237.94138969 52.42970739 237.92553377 56.62823939 C237.91286776 61.02435754 237.92461704 65.42042334 237.9324646 69.81654358 C237.9415601 77.19997599 237.92957695 84.5831583 237.90576172 91.96655273 C237.87856059 100.49809292 237.88735744 109.02903547 237.91489375 117.56056112 C237.93759876 124.88898481 237.94077782 132.21722878 237.9277004 139.54567629 C237.9199122 143.92106802 237.91884658 148.29617906 237.93538284 152.67155266 C237.94984839 156.7864707 237.93976859 160.90062007 237.91091156 165.01545525 C237.90431133 166.52389246 237.90618034 168.03239459 237.91722488 169.54080582 C238.00239527 182.35657912 238.00239527 182.35657912 234.83847046 186.29566956 C230.87886697 189.54108945 228.97731423 189.51112485 223.90234375 189.40625 C222.58838623 189.3870752 221.27442871 189.36790039 219.9206543 189.34814453 C218.87136246 189.33246429 218.87136246 189.33246429 217.8008728 189.31646729 C180.91218365 188.8510243 144.22176377 195.75034293 111.47900391 213.26464844 C105.69428475 216.22621992 100.7453702 217.69101077 94.25390625 216.4140625 C90.43700941 214.90518988 86.97989897 212.91965977 83.44140625 210.8515625 C52.15277293 193.62816026 15.05044479 188.16539237 -20.33056641 189.69995117 C-29.87101679 189.96641795 -29.87101679 189.96641795 -33.50390625 187.03125 C-36.82986506 183.14903328 -36.87565051 181.26259165 -36.8999939 176.20890808 C-36.90437615 175.56552579 -36.9087584 174.92214349 -36.91327345 174.25926477 C-36.92667616 172.09365732 -36.93284357 169.92809058 -36.93896484 167.76245117 C-36.94686461 166.21363643 -36.95513349 164.66482352 -36.96374512 163.11601257 C-36.98997829 158.02137005 -37.00527339 152.92671925 -37.01953125 147.83203125 C-37.02489027 146.07943529 -37.03026778 144.32683939 -37.0356636 142.57424355 C-37.05729365 135.28514792 -37.07603123 127.99605453 -37.087286 120.70693493 C-37.10353097 110.25403974 -37.13672039 99.80151595 -37.19368684 89.34876078 C-37.23236028 82.00263083 -37.25191556 74.65660032 -37.25720656 67.31037122 C-37.26086343 62.92092483 -37.27291989 58.53187443 -37.3053093 54.14253807 C-37.33534477 50.01298923 -37.34171825 45.88407692 -37.32992554 41.75444221 C-37.32970442 40.23910019 -37.33804088 38.72372901 -37.35557938 37.20848846 C-37.37823647 35.13828043 -37.36999657 33.07038745 -37.35409546 31.00016785 C-37.35740561 29.84222812 -37.36071575 28.68428839 -37.36412621 27.49125957 C-36.55687866 23.47195646 -34.87578465 21.96985742 -31.74609375 19.4140625 C-29.52612305 18.84643555 -29.52612305 18.84643555 -27.3203125 18.92578125 C-26.52431641 18.94189453 -25.72832031 18.95800781 -24.90820312 18.97460938 C-24.09158203 19.01650391 -23.27496094 19.05839844 -22.43359375 19.1015625 C-21.1796582 19.13540039 -21.1796582 19.13540039 -19.90039062 19.16992188 C-17.84818226 19.2285564 -15.79690173 19.31823035 -13.74609375 19.4140625 C-13.7203125 18.46144531 -13.69453125 17.50882813 -13.66796875 16.52734375 C-13.61125 15.27308594 -13.55453125 14.01882812 -13.49609375 12.7265625 C-13.4496875 11.48519531 -13.40328125 10.24382813 -13.35546875 8.96484375 C-11.89723248 0.46781317 -7.66518979 -0.3254494 0 0 Z M-7.74609375 6.4140625 C-8.02263763 8.35087386 -8.02263763 8.35087386 -7.94140625 10.546875 C-7.93496094 11.35253906 -7.92851563 12.15820312 -7.921875 12.98828125 C-7.90511719 13.83003906 -7.88835938 14.67179687 -7.87109375 15.5390625 C-7.86207031 16.38855469 -7.85304688 17.23804688 -7.84375 18.11328125 C-7.82015022 20.21366134 -7.78427858 22.31389694 -7.74609375 24.4140625 C-8.96296875 24.2490625 -10.17984375 24.0840625 -11.43359375 23.9140625 C-17.48908366 23.24873001 -23.66969388 22.8997044 -29.74609375 23.4140625 C-32.49460866 26.16257741 -31.99988475 27.70636876 -32.00679016 31.55674744 C-32.01387497 32.86776932 -32.02095978 34.1787912 -32.02825928 35.52954102 C-32.02596523 36.99096714 -32.0234555 38.45239294 -32.02075195 39.91381836 C-32.02509704 41.44617461 -32.03027951 42.97852869 -32.03623962 44.51087952 C-32.04966301 48.68027539 -32.05020459 52.84958081 -32.04767632 57.01899409 C-32.04660884 60.49579336 -32.05148428 63.97257416 -32.05628175 67.44936949 C-32.06738854 75.64977267 -32.0678078 83.85013004 -32.06176758 92.05053711 C-32.05572604 100.51888301 -32.06804066 108.98706283 -32.08933765 117.45538038 C-32.10693352 124.71826329 -32.11295819 131.98109323 -32.1096999 139.24399668 C-32.10788363 143.58518998 -32.11055731 147.92626483 -32.12441444 152.26743889 C-32.13695548 156.34928083 -32.13508428 160.43086326 -32.12200356 164.51270103 C-32.11963003 166.01273434 -32.12240011 167.51278569 -32.13062668 169.01279831 C-32.14102941 171.05663993 -32.13122716 173.10055495 -32.12031555 175.14439392 C-32.12048329 176.28942855 -32.12065104 177.43446318 -32.12082386 178.61419582 C-31.97705681 181.42447705 -31.97705681 181.42447705 -30.33967876 183.28661442 C-28.31003743 184.7225687 -27.20830419 184.73636653 -24.73828125 184.63671875 C-23.9297168 184.61641602 -23.12115234 184.59611328 -22.28808594 184.57519531 C-21.40797852 184.54264648 -20.52787109 184.51009766 -19.62109375 184.4765625 C16.75033451 183.85666685 55.8052827 189.33470808 87.8984375 207.44140625 C88.48584717 207.77132568 89.07325684 208.10124512 89.6784668 208.44116211 C91.26121112 209.34672365 92.82488025 210.28540268 94.38671875 211.2265625 C98.07667811 212.75482905 99.42312948 212.58545705 103.25390625 211.4140625 C106.92263305 209.81099171 110.48934632 208.0231734 114.06640625 206.2265625 C129.97439518 198.4534402 145.92851409 193.0696247 163.25390625 189.4140625 C164.17123535 189.22038086 165.08856445 189.02669922 166.03369141 188.82714844 C182.69090196 185.47128976 199.14895732 184.87676417 216.08691406 184.74121094 C216.93606888 184.73173431 217.78522369 184.72225769 218.66011047 184.7124939 C220.26647891 184.69620537 221.87296673 184.68863432 223.47941589 184.69107056 C227.27374013 184.65331821 229.01784265 184.57143824 232.25390625 182.4140625 C232.7089986 179.59776169 232.7089986 179.59776169 232.62812805 176.22668457 C232.63210246 175.58526913 232.63607686 174.94385369 232.64017171 174.28300142 C232.64983104 172.12399206 232.63795546 169.96563207 232.6262207 167.80664062 C232.62864748 166.2628098 232.6323657 164.71898054 232.63728333 163.17515564 C232.6467116 158.97477707 232.63725077 154.77463072 232.6239512 150.57427025 C232.61266022 146.1856214 232.61674238 141.79698439 232.61869812 137.4083252 C232.61958184 130.03731477 232.60848437 122.66639619 232.59008789 115.29541016 C232.56891906 106.76458719 232.56540991 98.23389881 232.57164985 89.7030549 C232.57733792 81.50819014 232.57170443 73.31337293 232.5604763 65.11851501 C232.55582292 61.62571842 232.55495965 58.13295084 232.55706215 54.64015198 C232.55894118 50.52961756 232.55087103 46.41922077 232.53500175 42.30871773 C232.53074705 40.79698315 232.52991627 39.28523464 232.53269196 37.77349663 C232.53589747 35.71599182 232.52687383 33.65890249 232.51460266 31.60144043 C232.51254979 30.44810966 232.51049692 29.2947789 232.50838184 28.10649872 C232.5282699 25.26347029 232.5282699 25.26347029 230.25390625 23.4140625 C227.92168323 23.22958427 227.92168323 23.22958427 225.24609375 23.4375 C224.25996094 23.4890625 223.27382813 23.540625 222.2578125 23.59375 C221.22527344 23.65820312 220.19273437 23.72265625 219.12890625 23.7890625 C218.08863281 23.84578125 217.04835938 23.9025 215.9765625 23.9609375 C213.40181425 24.10266676 210.82777509 24.25717099 208.25390625 24.4140625 C208.25390625 18.1440625 208.25390625 11.8740625 208.25390625 5.4140625 C169.28858342 4.02244383 129.84484673 19.26176106 101.25390625 45.4140625 C98.01296019 44.03293294 95.4945336 42.07006874 92.79077148 39.83520508 C78.34433311 27.9291145 62.89240424 20.4676567 45.25390625 14.4140625 C44.53847656 14.16285645 43.82304688 13.91165039 43.0859375 13.65283203 C16.78140569 4.03748192 16.78140569 4.03748192 -7.74609375 6.4140625 Z " transform="translate(59.74609375,2.5859375)" style="fill: #FAFAFA;"/><path d="M0 0 C8 0 8 0 14 1 C14.33 41.59 14.66 82.18 15 124 C20.18215609 125.77068088 20.18215609 125.77068088 25.28515625 126.52734375 C26.05561279 126.59518066 26.82606934 126.66301758 27.61987305 126.73291016 C28.42593994 126.8004248 29.23200684 126.86793945 30.0625 126.9375 C55.66236287 129.43895705 83.17100199 138.02409523 103 155 C104.796875 157.234375 104.796875 157.234375 106 159 C101.6615674 157.6083918 97.35947614 156.19533679 93.16015625 154.421875 C63.74847312 142.23537534 31.36030594 140.36349156 0 139 C0 93.13 0 47.26 0 0 Z " transform="translate(38,37)" style="fill: #EBEBEA;"/><path d="M0 0 C0 45.87 0 91.74 0 139 C-8.58 139.33 -17.16 139.66 -26 140 C-31.09610001 140.47007545 -36.07400041 140.96805793 -41.125 141.6875 C-42.36942871 141.86047607 -43.61385742 142.03345215 -44.89599609 142.21166992 C-63.23463754 144.90659992 -80.66407342 149.84264564 -98.01660156 156.27539062 C-100.65914223 157.24080922 -103.32525846 158.12835899 -106 159 C-95.10248174 142.65372261 -65.40346071 132.85701272 -47 129 C-38.66896421 127.44071523 -30.25702996 126.53390404 -21.82788086 125.69702148 C-18.10263463 125.63120527 -18.10263463 125.63120527 -15 124 C-14.89187487 122.40618922 -14.85315703 120.80762353 -14.84178162 119.21018982 C-14.8319928 118.17387421 -14.82220398 117.13755859 -14.81211853 116.06983948 C-14.80636307 114.92329391 -14.8006076 113.77674835 -14.79467773 112.59545898 C-14.78477814 111.39562378 -14.77487854 110.19578857 -14.76467896 108.95959473 C-14.73842867 105.66017762 -14.71659258 102.36078552 -14.69667697 99.0613277 C-14.67485486 95.6166283 -14.64744777 92.17197358 -14.62062073 88.72731018 C-14.57064262 82.20020511 -14.52572286 75.67307532 -14.48259836 69.14592177 C-14.43326962 61.71674811 -14.37833537 54.28761927 -14.32291877 46.85848892 C-14.2090202 31.57236732 -14.1021984 16.28620457 -14 1 C-9.07337118 -0.27138808 -5.46314577 0 0 0 Z " transform="translate(282,37)" style="fill: #EDEDEC;"/><path d="M0 0 C0 20.79 0 41.58 0 63 C-8.58 64.32 -17.16 65.64 -26 67 C-31.3559239 68.17572428 -31.3559239 68.17572428 -36.6796875 69.484375 C-39 70 -39 70 -43 70 C-43 49.54 -43 29.08 -43 8 C-28.66405141 3.5889389 -15.01402125 0 0 0 Z " transform="translate(258,91)" style="fill: #F4F4F2;"/><path d="M0 0 C16.28673427 1.16333816 16.28673427 1.16333816 23.75 2.8125 C24.50925781 2.96525391 25.26851562 3.11800781 26.05078125 3.27539062 C32.17078735 4.58534117 37.00441842 6.60176737 43 9 C43 29.13 43 49.26 43 70 C31.94280763 68.89428076 31.94280763 68.89428076 27.125 67.625 C18.18247161 65.58547598 9.07067993 64.36060199 0 63 C0 42.21 0 21.42 0 0 Z " transform="translate(62,91)" style="fill: #F4F4F2;"/><path d="M0 0 C0 21.12 0 42.24 0 64 C-5.61 66.64 -11.22 69.28 -17 72 C-24.0712687 76.35154997 -30.25555624 80.81481547 -36.2578125 86.53125 C-38 88 -38 88 -40 88 C-40.23219886 79.38552774 -40.40962109 70.77237209 -40.51812172 62.15553951 C-40.57021191 58.15375327 -40.64078906 54.1541145 -40.75439453 50.15356445 C-40.86344704 46.28894217 -40.92291764 42.42637772 -40.94877243 38.56033516 C-40.96718277 37.08930619 -41.00314084 35.61838412 -41.05730057 34.14823723 C-41.46296159 22.6752906 -41.46296159 22.6752906 -37.9122467 18.60923767 C-35.35291313 16.77901231 -32.83529541 15.35582026 -30 14 C-28.95481201 13.38471436 -27.90962402 12.76942871 -26.83276367 12.13549805 C-25.95338135 11.68215088 -25.07399902 11.22880371 -24.16796875 10.76171875 C-22.69360352 9.99698242 -22.69360352 9.99698242 -21.18945312 9.21679688 C-20.19880859 8.71212891 -19.20816406 8.20746094 -18.1875 7.6875 C-16.6725293 6.90149414 -16.6725293 6.90149414 -15.12695312 6.09960938 C-3.29480434 0 -3.29480434 0 0 0 Z " transform="translate(205,102)" style="fill: #F2F2F1;"/><path d="M0 0 C4.46653433 0.89330687 8.24600839 2.18967327 12.375 4 C13.06819336 4.30325195 13.76138672 4.60650391 14.47558594 4.91894531 C22.02317112 8.31860455 29.06094243 12.50181695 36 17 C36.71476501 17.40269608 37.42953003 17.80539215 38.16595459 18.22029114 C40 20 40 20 40.48101807 22.90434265 C40.4676944 24.6797216 40.4676944 24.6797216 40.45410156 26.4909668 C40.45468567 27.1448941 40.45526978 27.79882141 40.45587158 28.4725647 C40.45308688 30.63199122 40.42198042 32.79003371 40.390625 34.94921875 C40.38316389 36.44707993 40.37747034 37.94495088 40.37347412 39.44282532 C40.35820726 43.38370756 40.31891724 47.32399936 40.2746582 51.26464844 C40.23372767 55.28637708 40.2154679 59.3082012 40.1953125 63.33007812 C40.15242326 71.22032294 40.08416008 79.110088 40 87 C38.7144797 86.0369439 37.42910771 85.07368982 36.14379883 84.11035156 C35.42799149 83.57396057 34.71218414 83.03756958 33.97468567 82.48492432 C32.54382858 81.40894827 31.11948589 80.32429138 29.69921875 79.234375 C20.9363223 72.76854849 10.37596625 66.45865542 0 63 C0 42.21 0 21.42 0 0 Z " transform="translate(115,103)" style="fill: #F3F2F1;"/><path d="M0 0 C0.33 0.66 0.66 1.32 1 2 C3.02463255 2.65213292 3.02463255 2.65213292 5 3 C2.91780951 3.81542431 0.83420239 4.62723189 -1.25 5.4375 C-2.41015625 5.88996094 -3.5703125 6.34242188 -4.765625 6.80859375 C-7.18966308 7.70150633 -9.48286475 8.45794365 -12 9 C-5.25 0 -5.25 0 0 0 Z " transform="translate(188,187)" style="fill: #E1E1E1;"/><path d="M0 0 C3.16115776 1.36983503 3.9927092 1.9890638 6 5 C3.03 4.01 0.06 3.02 -3 2 C-2.01 1.34 -1.02 0.68 0 0 Z " transform="translate(138,191)" style="fill: #CACACA;"/></svg>